<?xml version="1.0" encoding="UTF-8" standalone="no"?>
<!-- Created with Inkscape (http://www.inkscape.org/) -->
<svg
   xmlns:svg="http://www.w3.org/2000/svg"
   xmlns="http://www.w3.org/2000/svg"
   version="1.0"
   width="248"
   height="399"
   id="svg2">
  <defs
     id="defs5" />
  <g
     transform="translate(-203.39141,-9.3298811)"
     id="g2188">
    <path
       d="M 298.5562,93.726289 L 279.89643,192.24984 L 301.91496,264.27652 L 352.29631,247.48273 L 382.89832,214.64155 L 423.20341,113.87883 L 411.26116,102.30978 L 343.71282,124.3283 L 298.5562,93.726289 z "
       style="fill:#992b2b"
       id="path2186" />
    <path
       d="M 341.25,12.8125 C 330.22797,12.78711 321.75255,14.589551 318.25,18.46875 C 312.69312,24.623185 299.9033,70.518771 283.9375,140.65625 C 272.41855,191.12674 280.41034,220.56016 288.28125,236.3125 C 298.34402,256.45148 306.18648,268.56058 290.28125,308.75 C 278.76206,337.85677 267.0092,343.42754 256.09375,344.8125 C 229.78797,338.48675 209.93647,338.26011 207.34375,345.375 C 203.79708,355.10771 233.8124,374.83561 274.34375,389.4375 C 314.87509,404.03938 350.67208,408.01396 354.21875,398.28125 C 356.81995,391.1431 341.31976,378.61938 316.90625,366.6875 C 306.18882,355.64471 296.57528,347.95337 305.0625,313.75 C 321.66597,246.83833 346.99287,269.8354 376.84375,228.25 C 402.16511,192.97469 408.86993,165.9097 423.53125,124.5625 C 439.06536,80.753941 445.88577,60.473586 443.875,56.46875 C 430.3319,29.49505 374.31609,12.888669 341.25,12.8125 z M 343.53125,22 C 355.85003,22.108004 371.50993,24.796486 384.21875,29.34375 C 411.45546,39.089146 436.03611,52.710005 434.59375,60.875 C 430.94837,81.510847 422.99243,98.367501 420.96875,104.1875 C 394.33356,78.425851 360.1301,155.30692 305.28125,91.6875 C 305.28125,91.687501 315.76939,51.272329 323,28.21875 C 324.38151,23.814058 332.66174,21.904702 343.53125,22 z M 303.40625,101.9375 C 358.89739,162.6572 397.63828,86.777139 417.96875,113.125 C 411.00639,135.99208 369.04606,274.44997 313.125,249.71875 C 266.80109,229.52626 293.62779,126.57117 303.40625,101.9375 z "
       style="fill:#000000"
       id="path2175" />
  </g>
</svg>
