<?xml version="1.0" encoding="UTF-8" standalone="no"?>
<!-- Created with Inkscape (http://www.inkscape.org/) -->

<svg
   xmlns:dc="http://purl.org/dc/elements/1.1/"
   xmlns:cc="http://creativecommons.org/ns#"
   xmlns:rdf="http://www.w3.org/1999/02/22-rdf-syntax-ns#"
   xmlns:svg="http://www.w3.org/2000/svg"
   xmlns="http://www.w3.org/2000/svg"
   xmlns:sodipodi="http://sodipodi.sourceforge.net/DTD/sodipodi-0.dtd"
   xmlns:inkscape="http://www.inkscape.org/namespaces/inkscape"
   version="1.1"
   width="512"
   height="512"
   id="svg2"
   inkscape:version="0.48.4 r9939"
   sodipodi:docname="q4wine-unity-dark.svg">
  <title
     id="title2992">Q4Wine logo</title>
  <sodipodi:namedview
     pagecolor="#ffffff"
     bordercolor="#666666"
     borderopacity="1"
     objecttolerance="10"
     gridtolerance="10"
     guidetolerance="10"
     inkscape:pageopacity="0"
     inkscape:pageshadow="2"
     inkscape:window-width="1194"
     inkscape:window-height="705"
     id="namedview15"
     showgrid="false"
     inkscape:zoom="1.4707821"
     inkscape:cx="187.03993"
     inkscape:cy="192.53137"
     inkscape:window-x="376"
     inkscape:window-y="140"
     inkscape:window-maximized="0"
     inkscape:current-layer="svg2"
     fit-margin-top="0"
     fit-margin-left="0"
     fit-margin-right="0"
     fit-margin-bottom="0" />
  <metadata
     id="metadata15">
    <rdf:RDF>
      <cc:Work
         rdf:about="">
        <dc:format>image/svg+xml</dc:format>
        <dc:type
           rdf:resource="http://purl.org/dc/dcmitype/StillImage" />
        <dc:title>Q4Wine logo</dc:title>
        <cc:license
           rdf:resource="GNU General Public License v3" />
        <dc:date>2013-03-26</dc:date>
        <dc:creator>
          <cc:Agent>
            <dc:title>Artem Vorotnikov</dc:title>
          </cc:Agent>
        </dc:creator>
      </cc:Work>
    </rdf:RDF>
  </metadata>
  <defs
     id="defs4" />
  <path
     d="m 101,419 c -4.8,21 62,46 88,58 21,7 64,19 81,12 25,-17 -18,-32 -35,-43 -23,-11 -24,-35 -18,-60 7,-25 18,-51 32,-60 8,-5 20,-13 20,-13 l -43.7991,3.03749 -29.52099,-31.63794 C 185.67991,280.39955 201,304 204,311 c 6.20151,11.69681 4.99371,22.47465 5,34 -24,124 -86,43 -108,74 z"
     style="fill:#dfdbd2;fill-opacity:1;stroke:none;stroke-width:1.44000006000000003px;stroke-linecap:butt;stroke-linejoin:miter;stroke-opacity:1"
     inkscape:connector-curvature="0"
     sodipodi:nodetypes="ccccsccccccc"
     id="path6" />
  <path
     d="m 357,147 c 0,0 -9,-8 -15,-10 -4,-1 -7,-1 -11,0 -8,2 -16,7 -24,10 -9,4 -17,9 -26,11 -8,2 -16,2 -24,0 -6,-1 -12,-4 -17,-7 -11,-7 -30,-27 -30,-27"
     id="path3084"
     style="fill:none;stroke:#dfdbd2;stroke-width:14.40000000000000036;stroke-linecap:butt;stroke-linejoin:round;stroke-miterlimit:4;stroke-opacity:1;stroke-dasharray:none"
     inkscape:connector-curvature="0"
     sodipodi:nodetypes="caaaaaac" />
  <path
     d="M 228,59.6 C 216,112 192.50923,174.87073 189,224 c -1.49619,20.94663 0,59 17,75 57,51 105,-33 126,-86 13,-38 25,-73 37,-108 2,-7 6,-11.8 6,-19 C 360,52.4 291,35.1 261,36.6 235,38 237,38 228,59.6 z"
     style="fill:none;stroke:#dfdbd2;stroke-width:12.96000004000000061;stroke-linecap:round;stroke-linejoin:round;stroke-miterlimit:4;stroke-opacity:1;stroke-dasharray:none"
     inkscape:connector-curvature="0"
     sodipodi:nodetypes="cscccccc"
     id="path10" />
</svg>
