<?xml version="1.0" encoding="UTF-8" standalone="no"?>
<svg
   xmlns:dc="http://purl.org/dc/elements/1.1/"
   xmlns:cc="http://creativecommons.org/ns#"
   xmlns:rdf="http://www.w3.org/1999/02/22-rdf-syntax-ns#"
   xmlns:svg="http://www.w3.org/2000/svg"
   xmlns="http://www.w3.org/2000/svg"
   width="144pt"
   height="144pt"
   viewBox="0 0 144 144"
   xml:space="preserve"
   id="svg2"
   version="1.1"><metadata
     id="metadata37"><rdf:RDF><cc:Work
         rdf:about=""><dc:format>image/svg+xml</dc:format><dc:type
           rdf:resource="http://purl.org/dc/dcmitype/StillImage" /><dc:title></dc:title></cc:Work></rdf:RDF></metadata><defs
     id="defs35"><radialGradient
       gradientUnits="userSpaceOnUse"
       gradientTransform="matrix(1.5403,0,0,1.5555,-30.617544,-43.950152)"
       fy="58.193802"
       fx="62.762199"
       r="20.650801"
       cy="58.193802"
       cx="62.762199"
       id="aigrd1"><stop
         id="stop14"
         style="stop-color:#FFFFFF"
         offset="0" /><stop
         id="stop16"
         style="stop-color:#80c342;stop-opacity:1"
         offset="1" /></radialGradient><linearGradient
       gradientTransform="translate(4.8813563,3.0508478)"
       y2="124.34"
       x2="42.861301"
       y1="120.6235"
       x1="33.038101"
       gradientUnits="userSpaceOnUse"
       id="aigrd2"><stop
         id="stop23"
         style="stop-color:#FFFFFF"
         offset="0" /><stop
         id="stop25"
         style="stop-color:#000000"
         offset="1" /></linearGradient></defs><g
     id="Layer_x0020_1"
     style="fill-rule:nonzero;clip-rule:nonzero;stroke:#FFFFFF;stroke-width:0;stroke-miterlimit:4;"><path
       transform="scale(0.8,0.8)"
       id="path5"
       d="M 92.84375,0.5234375 C 90.04067,0.5500486 87.199637,0.74356307 84.324219,1.1132812 L 82.553062,1.9850694 81.400391,3.3847656 C 67.439201,41.734785 57.167796,84.132137 67.205078,104.53125 c 3.433889,3.98341 4.78125,7.18164 4.78125,7.18164 -0.227672,7.86821 -0.502845,12.59389 -2.314007,18.81396 -1.460205,5.01479 -3.442073,11.42469 -10.877399,17.96924 -14.861329,-3.8567 -23.208639,-4.1193 -26.058594,1.60157 -0.946946,9.77135 23.150741,20.81739 40.800781,25.08007 21.083755,7.31213 27.357191,3.929 29.068361,-0.50195 1.39249,-3.60997 -4.585808,-10.60024 -20.189454,-17.7832 -0.940845,-4.91019 -1.276151,-8.85964 -0.851738,-12.57597 0.175364,-1.53556 0.48798,-3.03133 0.896012,-4.53862 0.460736,-1.70198 1.04313,-3.41867 1.68695,-5.22395 1.769784,-4.96251 3.759133,-10.59451 8.44651,-18.43099 23.0713,-3.68372 30.07758,-30.826738 51.54492,-91.226566 l 0.22929,-1.595951 -0.24251,-1.381554 -0.75493,-1.635251 C 128.82621,7.413182 112.46531,0.33715977 92.84375,0.5234375 Z m 3.134201,7.3727589 c 16.637169,1.1189394 30.360709,7.3513806 39.641189,17.3088816 -2.4175,7.24625 -4.67898,14.012031 -6.83398,20.332031 -5.70876,-5.48875 -10.12508,-2.499765 -14.76758,0.677735 -3.99375,2.7325 -8.52,5.828984 -15.406252,5.271484 -14.5425,-1.175 -19.243359,-12.254922 -19.849609,-13.857422 2.71125,-9.9475 7.782754,-28.6767268 9.060508,-28.4386794 2.070132,-1.6190294 6.255412,-1.4218365 8.155724,-1.2940302 z"
       style="opacity:0.8;fill:#f9f9f9;fill-opacity:1;stroke:#000000;stroke-opacity:1" /><path
       style="stroke:none"
       d="m 76.851562,4.3671875 c -2.370988,-0.02246 -4.757656,0.1240625 -7.1375,0.45 l -1.113799,0.5852557 -0.822138,1.0178693 c -9.244,27.0470005 -18.585563,62.3480005 -10.601563,76.9249995 0.757,1.383 1.659063,2.554128 2.689063,3.528128 0.471154,2.770907 0.865975,10.00825 -1.538443,18.25284 -1.673078,5.73687 -4.326798,12.6484 -10.820932,16.0081 -9.84,-2.72 -17.3865,-3.17413 -18.2625,-0.75313 -1.132,3.126 9.266563,9.83988 23.226563,14.99688 13.96,5.158 26.193562,6.80625 27.326562,3.68125 0.921997,-2.546 -5.813188,-7.47669 -15.892188,-12.00469 -2.546576,-5.43891 -1.571492,-12.53793 0.292077,-19.39179 1.796132,-6.60585 4.348776,-12.98396 8.971986,-17.428524 15.276002,-2.598 23.363562,-26.805689 37.57656,-69.404689 l 0.0298,-1.348909 -0.5532,-1.071403 0.002,0 C 101.99182,9.576156 89.654896,4.4884691 76.851562,4.3671875 Z M 75.829687,6.76875 C 89.168232,6.5855332 101.06,12.093375 108.48438,20.059375 c -1.934,5.797 -3.7432,11.211187 -5.4672,16.267187 -4.566996,-4.391 -8.098492,-2.001375 -11.812492,0.540625 -3.195,2.186 -6.816,4.664751 -12.325001,4.218751 -11.634,-0.94 -15.396249,-9.8055 -15.881249,-11.0875 2.169,-7.958 5.798142,-21.4416047 7.291212,-22.4497385 1.741718,-1.2952234 3.634532,-0.7537757 5.540037,-0.7799495 z"
       id="path9" /><path
       id="path11"
       d="m 66.056356,87.543848 c -13.447,-3.149 -10.562,-28.716 -3.985,-54.061 2.119,3.551 6.969,9.226 16.619,10.006 6.343,0.512 10.507,-2.337 13.853,-4.626 3.944,-2.698 5.996,-4.082 9.602004,0.008 -12.414004,36.131 -20.310004,52.368 -36.089004,48.673 z"
       style="opacity:0.88999999;fill:#80c342;fill-opacity:1;stroke:none" /><path
       style="fill:none;stroke:none;"
       d="M144,144H0V0h144v144z"
       id="path29" /><path
       style="fill:none;stroke:none;"
       d="M144,144H0V0h144v144z"
       id="path31" /></g></svg>