<?xml version="1.0" encoding="UTF-8" standalone="no"?>
<!-- Created with Inkscape (http://www.inkscape.org/) -->

<svg xmlns:dc="http://purl.org/dc/elements/1.1/" xmlns:cc="http://creativecommons.org/ns#" xmlns:rdf="http://www.w3.org/1999/02/22-rdf-syntax-ns#" xmlns:svg="http://www.w3.org/2000/svg" xmlns="http://www.w3.org/2000/svg" xmlns:sodipodi="http://sodipodi.sourceforge.net/DTD/sodipodi-0.dtd" xmlns:inkscape="http://www.inkscape.org/namespaces/inkscape" version="1.1" width="196" height="321" id="svg2" inkscape:version="0.48.4 r9939" sodipodi:docname="q4wine.svg">
 <sodipodi:namedview pagecolor="#ffffff" bordercolor="#666666" borderopacity="1" objecttolerance="10" gridtolerance="10" guidetolerance="10" inkscape:pageopacity="0" inkscape:pageshadow="2" inkscape:window-width="1855" inkscape:window-height="1056" id="namedview15" showgrid="false" inkscape:zoom="1.47" inkscape:cx="110" inkscape:cy="245" inkscape:window-x="65" inkscape:window-y="24" inkscape:window-maximized="1" inkscape:current-layer="svg2" fit-margin-top="0" fit-margin-left="0" fit-margin-right="0" fit-margin-bottom="0" />
 <metadata id="metadata15">
  <rdf:RDF>
   <cc:Work rdf:about="">
    <dc:format>image/svg+xml</dc:format>
    <dc:type rdf:resource="http://purl.org/dc/dcmitype/StillImage" />
    <dc:title />
   </cc:Work>
  </rdf:RDF>
 </metadata>
 <defs id="defs4" />
 <path d="m 0.643,271 c -3.073,14 44.257,32 62.757,40 13.7,5 43.6,13 55.6,8 17,-11 -13,-22 -23.7,-30 -15.8,-7 -17.6,-24 -13.1,-41 4.5,-18 13.3,-35 22.8,-42 5,-3 13,-9 13,-9 L 67,175 c -7,-3 3.9,16 5.8,21 1.9,5 2.2,6 2.6,9 0.8,4 0.8,9 0.2,14 C 59.7,305 17,249 0.643,271 z" style="fill:#000000;fill-opacity:1;stroke:#000000;stroke-width:1px;stroke-linecap:butt;stroke-linejoin:miter;stroke-opacity:1" inkscape:connector-curvature="0" sodipodi:nodetypes="ccccscccsccc" id="path6" />
 <path d="M 77.8,68.9 69,106 l -4.3,18 -1.8,12 1.3,24 3.9,17 10.4,18 18.9,5 19.6,-5 23,-21 17,-31 20,-53.2 3,-10.7 -15,-5.2 -19,6.6 -22,8.7 -19,-1 -12.4,-9.9 z" id="path3760" style="fill:#80c342;fill-opacity:1;stroke:#000000;stroke-width:1px;stroke-linecap:butt;stroke-linejoin:miter;stroke-opacity:1" inkscape:connector-curvature="0" />
 <path d="m 180,81.6 c 0,0 -7,-5.4 -11,-6.5 -3,-0.7 -5,-0.6 -8,-0.1 -6,1.1 -11,4.5 -16,6.7 -6,2.6 -12,6.3 -19,7.6 -5,1 -11,1 -16,-0.1 -4,-0.9 -8,-2.7 -12,-5 C 90.2,79.3 77.4,65.9 77.4,65.9" id="path3084" style="fill:none;stroke:#000000;stroke-width:10;stroke-linecap:butt;stroke-linejoin:round;stroke-miterlimit:4;stroke-opacity:1;stroke-dasharray:none" inkscape:connector-curvature="0" sodipodi:nodetypes="caaaaaac" />
 <path d="M 90.4,21.3 C 81.3,57.5 65.9,101 63.5,135 c -0.8,15 -0.2,41 11.7,53 38.8,35 71.8,-24 86.8,-60 9,-27 18,-50.8 26,-75.4 1,-4.4 4,-8.8 4,-13.4 C 181,15.9 134,4.31 113,4.5 94.8,5.72 95.6,5.68 90.4,21.3 z" style="fill:none;stroke:#000000;stroke-width:9;stroke-linecap:round;stroke-linejoin:round;stroke-miterlimit:4;stroke-opacity:1;stroke-dasharray:none" inkscape:connector-curvature="0" sodipodi:nodetypes="cccccccc" id="path10" />
 <g transform="matrix(0.596,0,0,0.596,23,91.7)" id="Q">
  <path d="m 112,129 c -1,-2 -2,-5 -3,-6 0,-2 -2,-3 -4,-4 C 95.7,117 87.3,105 83.7,89.1 81.1,78 81.2,44.5 83.8,34.6 87.9,19.4 95.6,9.6 106,6.57 112,4.62 116,4.74 111,6.71 101,10 94.4,19.1 90.2,33.6 c -2.1,7.2 -2.3,9.9 -2.2,29 0.1,18.1 0.4,22 2.2,28.6 4.1,14.8 9.8,23.8 19.8,27.8 5,2 6,3 7,7 2,8 8,14 14,17 -9,1 -18,-9 -19,-14 z m 14,-26 c 5,-5.6 7,-16.7 7,-40.6 0,-22.9 -2,-35.9 -8,-39.9 -2,-1.4 -2,-1.4 1,-1.4 10,0 14,14.1 13,48.5 0,19.1 -2,26.6 -5,32.4 -2,2 -6,4 -9,4 -2,0 -2,0 1,-3 z" id="path2398" style="fill:#016123" inkscape:connector-curvature="0" sodipodi:nodetypes="ccccccccccsscccscsccsc" />
  <path d="m 145,143 c 2,0 2,0 2,-6 0,-6 0,-7 -2,-7 -3,0 -6,-2 -8,-6 -1,-2 -2,-4 -1,-4 0,0 2,-2 5,-3 13,-8 18,-24.2 18,-53.9 C 159,27.4 150,10.4 129,6.09 122,4.73 115,5.46 109,8.05 99.9,11.9 93.1,22.3 89.8,37.1 87.4,47.6 87.5,76.5 89.9,87.6 93.4,104 102,116 112,119 c 3,2 4,2 5,7 3,8 5,12 8,14 7,4 13,3 20,3 z m -23,-37 c -3,-2 -6,-7.1 -8,-11.8 -4,-15.6 -3,-54.1 1,-65.1 2,-5 7,-9 10,-9 5,0 10,5 12,11 3,10.4 4,45.5 1,60.3 -2,11.6 -9,17.6 -16,14.6 z" id="path2400" style="fill:#ffffff" inkscape:connector-curvature="0" sodipodi:nodetypes="csssccscccccccccccsccc" />
 </g>
 <g transform="translate(-2.04,-0.036)" id="4-3" style="fill:#016123;fill-opacity:1">
  <path d="m 121,125 0,8 17,0 0,8 -1,1 -1,1 13,0 -2,-3 0,-7 5,0 0,-11 c -2,2 -4,3 -5,3 l 0,-26 -9,0 0,26 -6,0 c 3,-4 5,-10 5,-14 0,-4 0,-7 -3,-10 l -1,0 c -1,14 -2,15 -12,24 z" id="path2994-6" style="fill:#016123;fill-opacity:1;stroke:none" inkscape:connector-curvature="0" sodipodi:nodetypes="cccccccccccccccccccc" />
 </g>
 <g id="4" transform="translate(-0.249,-0.048)">
  <path d="m 121,125 0,8 17,0 0,8 -1,1 -1,1 13,0 -2,-3 0,-7 5,0 0,-11 c -2,2 -4,3 -5,3 l 0,-26 -9,0 0,26 -6,0 c 3,-4 5,-10 5,-14 0,-4 0,-7 -3,-10 l -1,0 c -1,14 -2,15 -12,24 z" id="path2994" style="fill:#ffffff;fill-opacity:1;stroke:none" inkscape:connector-curvature="0" sodipodi:nodetypes="cccccccccccccccccccc" />
 </g>
</svg>
