<?xml version="1.0" encoding="UTF-8" standalone="no"?>
<!-- Created with Inkscape (http://www.inkscape.org/) -->

<svg
   xmlns:dc="http://purl.org/dc/elements/1.1/"
   xmlns:cc="http://creativecommons.org/ns#"
   xmlns:rdf="http://www.w3.org/1999/02/22-rdf-syntax-ns#"
   xmlns:svg="http://www.w3.org/2000/svg"
   xmlns="http://www.w3.org/2000/svg"
   xmlns:xlink="http://www.w3.org/1999/xlink"
   xmlns:sodipodi="http://sodipodi.sourceforge.net/DTD/sodipodi-0.dtd"
   xmlns:inkscape="http://www.inkscape.org/namespaces/inkscape"
   width="64"
   height="64"
   id="svg4640"
   version="1.1"
   inkscape:version="0.91 r13725"
   viewBox="0 0 64 64"
   sodipodi:docname="notepad.svg">
  <defs
     id="defs4642">
    <linearGradient
       inkscape:collect="always"
       xlink:href="#linearGradient4001"
       id="linearGradient3315"
       gradientUnits="userSpaceOnUse"
       gradientTransform="matrix(0.06707255,0,0,0.041103,8.3770205,29.938594)"
       x1="302.85999"
       y1="366.64999"
       x2="302.85999"
       y2="609.51001" />
    <linearGradient
       id="linearGradient4001"
       y2="609.51001"
       gradientUnits="userSpaceOnUse"
       x2="302.85999"
       gradientTransform="matrix(0.06707255,0,0,0.041103,8.3770205,29.938594)"
       y1="366.64999"
       x1="302.85999">
      <stop
         id="stop5050-9"
         stop-color="#000"
         stop-opacity="0"
         offset="0" />
      <stop
         id="stop5056-0"
         stop-color="#000"
         offset="0.5" />
      <stop
         id="stop5052-8"
         stop-color="#000"
         stop-opacity="0"
         offset="1" />
    </linearGradient>
    <radialGradient
       inkscape:collect="always"
       xlink:href="#linearGradient5060"
       id="radialGradient3317"
       gradientUnits="userSpaceOnUse"
       gradientTransform="matrix(0.06707255,0,0,0.041103,8.3902203,29.938594)"
       cx="605.71002"
       cy="486.64999"
       r="117.14" />
    <linearGradient
       id="linearGradient5060">
      <stop
         id="stop5062"
         stop-color="#000"
         offset="0" />
      <stop
         id="stop5064"
         stop-color="#000"
         stop-opacity="0"
         offset="1" />
    </linearGradient>
    <radialGradient
       inkscape:collect="always"
       xlink:href="#linearGradient5060"
       id="radialGradient3319"
       gradientUnits="userSpaceOnUse"
       gradientTransform="matrix(-0.06707255,0,0,0.041103,56.847699,29.938594)"
       cx="605.71002"
       cy="486.64999"
       r="117.14" />
    <linearGradient
       inkscape:collect="always"
       xlink:href="#linearGradient3990"
       id="linearGradient3321"
       gradientUnits="userSpaceOnUse"
       gradientTransform="matrix(1.137871,0,0,1,6.3330676,8)"
       x1="21.042999"
       y1="42.833"
       x2="14.284"
       y2="6.8333998" />
    <linearGradient
       id="linearGradient3990"
       y2="6.8333998"
       gradientUnits="userSpaceOnUse"
       x2="14.284"
       gradientTransform="matrix(1.137871,0,0,1,6.3330676,8)"
       y1="42.833"
       x1="21.042999">
      <stop
         id="stop2857-6"
         stop-color="#dfdfdf"
         offset="0" />
      <stop
         id="stop2859-3"
         stop-color="#FFF"
         offset="1" />
    </linearGradient>
    <linearGradient
       inkscape:collect="always"
       xlink:href="#linearGradient3992"
       id="linearGradient3323"
       gradientUnits="userSpaceOnUse"
       gradientTransform="translate(8.9939516,8)"
       x1="26.612"
       y1="28.083"
       x2="26.228001"
       y2="42.833" />
    <linearGradient
       id="linearGradient3992"
       y2="42.833"
       gradientUnits="userSpaceOnUse"
       x2="26.228001"
       gradientTransform="translate(8.9939516,8)"
       y1="28.083"
       x1="26.612">
      <stop
         id="stop2875-5"
         stop-color="#939393"
         offset="0" />
      <stop
         id="stop2877-6"
         stop-color="#424242"
         offset="1" />
    </linearGradient>
    <radialGradient
       inkscape:collect="always"
       xlink:href="#radialGradient3987"
       id="radialGradient3325"
       gradientUnits="userSpaceOnUse"
       gradientTransform="matrix(0.616613,0,0,0.15335473,19.608202,33.548722)"
       cx="23.562"
       cy="40.438"
       r="19.562" />
    <radialGradient
       id="radialGradient3987"
       gradientUnits="userSpaceOnUse"
       cy="40.438"
       cx="23.562"
       gradientTransform="matrix(0.616613,0,0,0.15335473,19.608202,33.548722)"
       r="19.562">
      <stop
         id="stop2867-1"
         stop-color="#000"
         offset="0" />
      <stop
         id="stop2869-5"
         stop-color="#000"
         stop-opacity="0"
         offset="1" />
    </radialGradient>
    <linearGradient
       inkscape:collect="always"
       xlink:href="#linearGradient3982"
       id="linearGradient3327"
       gradientUnits="userSpaceOnUse"
       gradientTransform="translate(8.9939516,8)"
       x1="6"
       y1="7.5625"
       x2="40.984001"
       y2="7.5625" />
    <linearGradient
       id="linearGradient3982"
       y2="7.5625"
       gradientUnits="userSpaceOnUse"
       x2="40.984001"
       gradientTransform="translate(8.9939516,8)"
       y1="7.5625"
       x1="6">
      <stop
         id="stop2921-8"
         stop-color="#a3a4a0"
         offset="0" />
      <stop
         id="stop2923-4"
         stop-color="#888a85"
         offset="1" />
    </linearGradient>
    <linearGradient
       inkscape:collect="always"
       xlink:href="#linearGradient3962"
       id="linearGradient3329"
       gradientUnits="userSpaceOnUse"
       gradientTransform="translate(3.0815916,8)"
       x1="48.905998"
       y1="17.375999"
       x2="50.987999"
       y2="22.250999" />
    <linearGradient
       id="linearGradient3962"
       y2="22.250999"
       gradientUnits="userSpaceOnUse"
       x2="50.987999"
       gradientTransform="translate(3.0815916,8)"
       y1="17.375999"
       x1="48.905998">
      <stop
         id="stop2968-1"
         stop-color="#ffd1d1"
         offset="0" />
      <stop
         id="stop3006-0"
         stop-color="#ff1d1d"
         offset="0.5" />
      <stop
         id="stop2970-3"
         stop-color="#6f0000"
         offset="1" />
    </linearGradient>
    <linearGradient
       inkscape:collect="always"
       xlink:href="#linearGradient3959"
       id="linearGradient3331"
       gradientUnits="userSpaceOnUse"
       gradientTransform="translate(3.0815916,8)"
       x1="46"
       y1="19.812"
       x2="47.688"
       y2="22.625" />
    <linearGradient
       id="linearGradient3959"
       y2="22.625"
       gradientUnits="userSpaceOnUse"
       x2="47.688"
       gradientTransform="translate(3.0815916,8)"
       y1="19.812"
       x1="46">
      <stop
         id="stop2976"
         stop-color="#c1c1c1"
         offset="0" />
      <stop
         id="stop2978"
         stop-color="#acacac"
         offset="1" />
    </linearGradient>
    <radialGradient
       inkscape:collect="always"
       xlink:href="#radialGradient3956"
       id="radialGradient3333"
       gradientUnits="userSpaceOnUse"
       gradientTransform="matrix(2.923565,0,0,2.029717,-52.804436,-19.88417)"
       cx="29.052999"
       cy="27.641001"
       r="3.2409" />
    <radialGradient
       id="radialGradient3956"
       gradientUnits="userSpaceOnUse"
       cy="27.641001"
       cx="29.052999"
       gradientTransform="matrix(2.923565,0,0,2.029717,-52.804436,-19.88417)"
       r="3.2409">
      <stop
         id="stop2986-4"
         stop-color="#e7e2b8"
         offset="0" />
      <stop
         id="stop2988-4"
         stop-color="#e7e2b8"
         stop-opacity="0"
         offset="1" />
    </radialGradient>
    <linearGradient
       inkscape:collect="always"
       xlink:href="#linearGradient3953"
       id="linearGradient3335"
       gradientUnits="userSpaceOnUse"
       gradientTransform="translate(2.9253416,8.125)"
       x1="25.719"
       y1="31.047001"
       x2="25.514999"
       y2="30.702999" />
    <linearGradient
       id="linearGradient3953"
       y2="30.702999"
       gradientUnits="userSpaceOnUse"
       x2="25.514999"
       gradientTransform="translate(2.9253416,8.125)"
       y1="31.047001"
       x1="25.719">
      <stop
         id="stop2996-4"
         stop-color="#000"
         offset="0" />
      <stop
         id="stop2998-7"
         stop-color="#c9c9c9"
         offset="1" />
    </linearGradient>
    <radialGradient
       inkscape:collect="always"
       xlink:href="#radialGradient3948"
       id="radialGradient3337"
       gradientUnits="userSpaceOnUse"
       gradientTransform="matrix(0.4206982,0,0,0.10417298,-0.9004154,34.625538)"
       cx="37.375"
       cy="33.188"
       r="14.625" />
    <radialGradient
       id="radialGradient3948"
       gradientUnits="userSpaceOnUse"
       cy="33.188"
       cx="37.375"
       gradientTransform="matrix(0.4206982,0,0,0.10417298,-0.9004154,34.625538)"
       r="14.625">
      <stop
         id="stop4335-3"
         stop-color="#000"
         offset="0" />
      <stop
         id="stop4337-1"
         stop-color="#000"
         stop-opacity="0"
         offset="1" />
    </radialGradient>
    <radialGradient
       inkscape:collect="always"
       xlink:href="#radialGradient3944"
       id="radialGradient3339"
       gradientUnits="userSpaceOnUse"
       gradientTransform="matrix(1.5911065,-0.078428,0.09931994,1.9582576,-26.881692,-1.554342)"
       cx="27.5"
       cy="22.614"
       r="6.5" />
    <radialGradient
       id="radialGradient3944"
       gradientUnits="userSpaceOnUse"
       cy="22.614"
       cx="27.5"
       gradientTransform="matrix(1.5911065,-0.078428,0.09931994,1.9582576,-26.881692,-1.554342)"
       r="6.5">
      <stop
         id="stop3348-5"
         stop-color="#737373"
         offset="0" />
      <stop
         id="stop3350-9"
         stop-color="#000"
         stop-opacity="0"
         offset="1" />
    </radialGradient>
    <linearGradient
       inkscape:collect="always"
       xlink:href="#linearGradient3941"
       id="linearGradient3341"
       gradientUnits="userSpaceOnUse"
       gradientTransform="matrix(1.2744752,0,0,1.0288787,-13.81293,41.194551)"
       x1="27.681"
       y1="14.243"
       x2="21.440001"
       y2="9.2770004" />
    <linearGradient
       id="linearGradient3941"
       y2="9.2770004"
       gradientUnits="userSpaceOnUse"
       x2="21.440001"
       gradientTransform="matrix(1.2744752,0,0,1.0288787,-13.81293,41.194551)"
       y1="14.243"
       x1="27.681">
      <stop
         id="stop3230-2"
         stop-color="#373737"
         offset="0" />
      <stop
         id="stop3232-1"
         stop-color="#cfcfcf"
         stop-opacity="0.67826086"
         offset="1" />
    </linearGradient>
    <linearGradient
       inkscape:collect="always"
       xlink:href="#linearGradient3198"
       id="linearGradient3343"
       gradientUnits="userSpaceOnUse"
       gradientTransform="matrix(1.2818465,0,0,0.9398128,-13.982469,42.174276)"
       x1="25.268999"
       y1="12.038"
       x2="17.799"
       y2="5.0353999" />
    <linearGradient
       id="linearGradient3198">
      <stop
         id="stop3200"
         stop-color="#FFF"
         offset="0" />
      <stop
         id="stop3202"
         stop-color="#FFF"
         stop-opacity="0"
         offset="1" />
    </linearGradient>
    <linearGradient
       inkscape:collect="always"
       xlink:href="#linearGradient3935"
       id="linearGradient3345"
       gradientUnits="userSpaceOnUse"
       gradientTransform="matrix(1.0342194,0,0,1.0195661,-9.321263,16.103596)"
       x1="29"
       y1="33"
       x2="19"
       y2="27" />
    <linearGradient
       id="linearGradient3935"
       y2="27"
       gradientUnits="userSpaceOnUse"
       x2="19"
       gradientTransform="matrix(1.0342194,0,0,1.0195661,-9.321263,16.103596)"
       y1="33"
       x1="29">
      <stop
         id="stop3222-4"
         stop-color="#373737"
         offset="0" />
      <stop
         id="stop3224-1"
         stop-color="#FFF"
         offset="1" />
    </linearGradient>
    <radialGradient
       inkscape:collect="always"
       xlink:href="#radialGradient3932"
       id="radialGradient3347"
       gradientUnits="userSpaceOnUse"
       gradientTransform="matrix(0.9811466,-0.3224151,0.1189352,0.3517503,-11.069189,40.764724)"
       cx="26.625"
       cy="26.577"
       r="12.5" />
    <radialGradient
       id="radialGradient3932"
       gradientUnits="userSpaceOnUse"
       cy="26.577"
       cx="26.625"
       gradientTransform="matrix(0.9811466,-0.3224151,0.1189352,0.3517503,-11.069189,40.764724)"
       r="12.5">
      <stop
         id="stop3191-5"
         stop-color="#e40000"
         offset="0" />
      <stop
         id="stop3193-9"
         stop-color="#490000"
         offset="1" />
    </radialGradient>
    <radialGradient
       inkscape:collect="always"
       xlink:href="#radialGradient3927"
       id="radialGradient3349"
       gradientUnits="userSpaceOnUse"
       gradientTransform="matrix(1.2818465,0,0,0.46520969,-13.98247,30.358043)"
       cx="25.017"
       cy="13.192"
       r="9.7512999" />
    <radialGradient
       id="radialGradient3927"
       gradientUnits="userSpaceOnUse"
       cy="13.192"
       cx="25.017"
       gradientTransform="matrix(1.2818465,0,0,0.46520969,-13.98247,30.358043)"
       r="9.7512999">
      <stop
         id="stop3173-5"
         stop-color="#fd0000"
         offset="0" />
      <stop
         id="stop3175-3"
         stop-color="#6a0000"
         offset="1" />
    </radialGradient>
    <linearGradient
       inkscape:collect="always"
       xlink:href="#linearGradient3929"
       id="linearGradient3351"
       gradientUnits="userSpaceOnUse"
       gradientTransform="matrix(1.2818465,0,0,0.9398128,-13.98247,25.137409)"
       x1="27.216999"
       y1="15.984"
       x2="22.035999"
       y2="7.1352" />
    <linearGradient
       id="linearGradient3929"
       y2="7.1352"
       gradientUnits="userSpaceOnUse"
       x2="22.035999"
       gradientTransform="matrix(1.2818465,0,0,0.9398128,-13.98247,25.137409)"
       y1="15.984"
       x1="27.216999">
      <stop
         id="stop4404-8"
         stop-color="#e80000"
         offset="0" />
      <stop
         id="stop4406-3"
         stop-color="#490000"
         offset="1" />
    </linearGradient>
    <linearGradient
       inkscape:collect="always"
       xlink:href="#linearGradient3198"
       id="linearGradient3353"
       gradientUnits="userSpaceOnUse"
       gradientTransform="matrix(1.0293043,0,0,1.0285483,-9.168503,16.155365)"
       x1="30.375999"
       y1="25.27"
       x2="22"
       y2="19" />
    <linearGradient
       inkscape:collect="always"
       xlink:href="#linearGradient3198"
       id="linearGradient3355"
       gradientUnits="userSpaceOnUse"
       gradientTransform="matrix(1.0342194,0,0,1.019566,-8.436602,15.424526)"
       x1="17.605"
       y1="18.312"
       x2="23"
       y2="18.312" />
    <radialGradient
       inkscape:collect="always"
       xlink:href="#radialGradient3916"
       id="radialGradient3357"
       gradientUnits="userSpaceOnUse"
       gradientTransform="matrix(1.0342194,0,0,0.1874519,-1.060189,33.705228)"
       cx="18"
       cy="14.19"
       r="5.5054998" />
    <radialGradient
       id="radialGradient3916"
       gradientUnits="userSpaceOnUse"
       cy="14.19"
       cx="18"
       gradientTransform="matrix(1.0342194,0,0,0.1874519,-1.060189,33.705228)"
       r="5.5054998">
      <stop
         id="stop3454-8"
         stop-color="#FFF"
         offset="0" />
      <stop
         id="stop3456-9"
         stop-color="#FFF"
         stop-opacity="0"
         offset="1" />
    </radialGradient>
    <linearGradient
       inkscape:collect="always"
       xlink:href="#linearGradient3910"
       id="linearGradient3359"
       gradientUnits="userSpaceOnUse"
       gradientTransform="matrix(1.0342194,0,0,1.019566,-1.0475092,23.974154)"
       x1="16"
       y1="27.5"
       x2="20.5"
       y2="25.5" />
    <linearGradient
       id="linearGradient3910"
       y2="25.5"
       gradientUnits="userSpaceOnUse"
       x2="20.5"
       gradientTransform="matrix(1.0342194,0,0,1.019566,-1.0475092,23.974154)"
       y1="27.5"
       x1="16">
      <stop
         id="stop3375-4"
         stop-color="#000"
         offset="0" />
      <stop
         id="stop3377-3"
         stop-color="#373737"
         stop-opacity="0"
         offset="1" />
    </linearGradient>
    <linearGradient
       inkscape:collect="always"
       xlink:href="#linearGradient3912"
       id="linearGradient3361"
       gradientUnits="userSpaceOnUse"
       gradientTransform="matrix(1.0342194,0,0,1.019566,-1.0475092,23.974154)"
       x1="16"
       y1="27"
       x2="21.5"
       y2="27" />
    <linearGradient
       id="linearGradient3912"
       y2="27"
       gradientUnits="userSpaceOnUse"
       x2="21.5"
       gradientTransform="matrix(1.0342194,0,0,1.019566,-1.0475092,23.974154)"
       y1="27"
       x1="16">
      <stop
         id="stop3444-3"
         stop-color="#000"
         offset="0" />
      <stop
         id="stop3446-8"
         stop-color="#000"
         stop-opacity="0"
         offset="1" />
    </linearGradient>
  </defs>
  <sodipodi:namedview
     id="base"
     pagecolor="#ffffff"
     bordercolor="#666666"
     borderopacity="1.0"
     inkscape:pageopacity="0.0"
     inkscape:pageshadow="2"
     inkscape:zoom="3.8890873"
     inkscape:cx="3.1279752"
     inkscape:cy="37.40875"
     inkscape:current-layer="layer1"
     showgrid="true"
     inkscape:document-units="px"
     inkscape:grid-bbox="true"
     inkscape:window-width="1410"
     inkscape:window-height="855"
     inkscape:window-x="30"
     inkscape:window-y="0"
     inkscape:window-maximized="1" />
  <metadata
     id="metadata4645">
    <rdf:RDF>
      <cc:Work
         rdf:about="">
        <dc:format>image/svg+xml</dc:format>
        <dc:type
           rdf:resource="http://purl.org/dc/dcmitype/StillImage" />
        <dc:title></dc:title>
      </cc:Work>
    </rdf:RDF>
  </metadata>
  <g
     id="layer1"
     inkscape:label="Layer 1"
     inkscape:groupmode="layer">
    <g
       id="g3219"
       transform="matrix(1.2395914,0,0,1.3171962,-8.3093249,-10.596669)">
      <rect
         x="16.426001"
         y="45.008999"
         width="32.386002"
         height="9.9821997"
         id="rect3221"
         style="opacity:0.40206;fill:url(#linearGradient3315);fill-rule:nonzero" />
      <path
         d="m 48.812,45.009 0,9.9816 c 3.4541,0.01879 8.3503,-2.2364 8.3503,-4.9914 0,-2.7551 -3.8545,-4.9902 -8.3503,-4.9902 z"
         id="path3223"
         style="opacity:0.40206185;fill:url(#radialGradient3317);fill-rule:nonzero"
         inkscape:connector-curvature="0" />
      <path
         d="m 16.426,45.009 0,9.9816 c -3.4541,0.01879 -8.3503,-2.2364 -8.3503,-4.9914 0,-2.7551 3.8545,-4.9902 8.3503,-4.9902 z"
         id="path3225"
         style="opacity:0.40206185;fill:url(#radialGradient3319);fill-rule:nonzero"
         inkscape:connector-curvature="0" />
      <path
         stroke-miterlimit="4"
         d="m 16.158,12.506 32.649,0 c 0.76258,0 1.3765,0.53245 1.3765,1.1938 0,0 2.4013,34.169 2.4013,34.169 0,0 0.01246,2.3476 0.01246,2.3476 0,0.66139 -0.61392,1.1938 -1.3765,1.1938 l -37.477,0 c -0.76258,0 -1.3765,-0.53245 -1.3765,-1.1938 l -0.01117,-2.1669 2.425,-34.349 c 0,-0.66139 0.61392,-1.1938 1.3765,-1.1938 z"
         id="path3227"
         style="fill:url(#linearGradient3321);fill-rule:evenodd;stroke:url(#linearGradient3323);stroke-width:0.99999982;stroke-linecap:butt;stroke-linejoin:miter;stroke-miterlimit:4;stroke-dashoffset:0"
         inkscape:connector-curvature="0" />
      <path
         d="m 46.2,39.75 a 12.0625,3.0001244 0 0 1 -24.125,0 12.0625,3.0001244 0 1 1 24.125,0 z"
         id="path3229"
         style="opacity:0.31578944;fill:url(#radialGradient3325);fill-rule:evenodd"
         inkscape:connector-curvature="0" />
      <rect
         x="12.971"
         y="47.868"
         width="39.048"
         height="3.0715001"
         ry="0.67938"
         rx="0.67938"
         id="rect3231"
         style="fill:#a4a4a4;fill-rule:evenodd" />
      <path
         d="m 12.921,48.443 c 0,0 0.15086,-0.53033 0.70402,-0.57452 l 37.565,0 c 0.75431,0 0.8046,0.7513 0.8046,0.7513 0,0 0.0236,-1.6196 -1.2839,-1.6196 l -36.412,0 c -1.0057,0.08839 -1.3775,0.77988 -1.3775,1.4428 z"
         id="path3233"
         inkscape:connector-curvature="0"
         style="fill:#ffffff;fill-rule:evenodd" />
      <path
         d="m 15.244,13.734 -0.25,4.3906 c 0,0 0.3125,-1.125 1,-1.125 l 33.125,0 c 0.70312,-0.01563 0.73438,0.3125 0.85938,0.82812 0,0 -0.25,-3.875 -0.25,-3.875 -0.031,-0.547 -0.218,-0.953 -0.781,-0.953 l -32.891,0 c -0.45312,0 -0.76562,0.34375 -0.8125,0.73438 z"
         id="path3235"
         style="fill:url(#linearGradient3327);fill-rule:evenodd"
         inkscape:connector-curvature="0" />
      <path
         stroke-miterlimit="4"
         d="m 16.807,13.54 31.132,0 c 0.72204,0 1.3033,-0.1521 1.3033,0.47412 0,0 2.2737,33.009 2.2737,33.009 0,0 0.10018,2.709 0.10018,2.709 0,0.62623 -0.13934,0.64424 -0.86137,0.64424 l -36.899,0 c -0.41268,0 -0.41943,-0.1064 -0.41943,-0.51165 l -0.01058,-2.6704 2.296,-33.148 c 0,-0.62623 0.36253,-0.50537 1.0846,-0.50537 z"
         id="path3237"
         inkscape:connector-curvature="0"
         style="opacity:0.43859648;fill:none;stroke:#ffffff;stroke-width:0.99999946;stroke-linecap:butt;stroke-linejoin:miter;stroke-miterlimit:4;stroke-dashoffset:0" />
      <rect
         x="17.493999"
         y="10.5"
         stroke-miterlimit="4"
         width="2"
         height="5"
         ry="1"
         rx="1"
         style="fill:#fce94f;fill-rule:evenodd;stroke:#886f00;stroke-width:1;stroke-linecap:butt;stroke-linejoin:miter;stroke-miterlimit:4;stroke-dasharray:none;stroke-dashoffset:0"
         id="rect3239" />
      <rect
         x="21.493999"
         y="10.5"
         stroke-miterlimit="4"
         width="2"
         height="5"
         ry="1"
         rx="1"
         style="fill:#fce94f;fill-rule:evenodd;stroke:#886f00;stroke-width:1;stroke-linecap:butt;stroke-linejoin:miter;stroke-miterlimit:4;stroke-dasharray:none;stroke-dashoffset:0"
         id="rect3241" />
      <rect
         x="25.493999"
         y="10.5"
         stroke-miterlimit="4"
         width="2"
         height="5"
         ry="1"
         rx="1"
         style="fill:#fce94f;fill-rule:evenodd;stroke:#886f00;stroke-width:1;stroke-linecap:butt;stroke-linejoin:miter;stroke-miterlimit:4;stroke-dasharray:none;stroke-dashoffset:0"
         id="rect3243" />
      <rect
         x="29.493999"
         y="10.5"
         stroke-miterlimit="4"
         width="2"
         height="5"
         ry="1"
         rx="1"
         style="fill:#fce94f;fill-rule:evenodd;stroke:#886f00;stroke-width:1;stroke-linecap:butt;stroke-linejoin:miter;stroke-miterlimit:4;stroke-dasharray:none;stroke-dashoffset:0"
         id="rect3245" />
      <rect
         x="33.493999"
         y="10.5"
         stroke-miterlimit="4"
         width="2"
         height="5"
         ry="1"
         rx="1"
         style="fill:#fce94f;fill-rule:evenodd;stroke:#886f00;stroke-width:1;stroke-linecap:butt;stroke-linejoin:miter;stroke-miterlimit:4;stroke-dasharray:none;stroke-dashoffset:0"
         id="rect3247" />
      <rect
         x="37.493999"
         y="10.5"
         stroke-miterlimit="4"
         width="2"
         height="5"
         ry="1"
         rx="1"
         style="fill:#fce94f;fill-rule:evenodd;stroke:#886f00;stroke-width:1;stroke-linecap:butt;stroke-linejoin:miter;stroke-miterlimit:4;stroke-dasharray:none;stroke-dashoffset:0"
         id="rect3249" />
      <rect
         x="41.493999"
         y="10.5"
         stroke-miterlimit="4"
         width="2"
         height="5"
         ry="1"
         rx="1"
         style="fill:#fce94f;fill-rule:evenodd;stroke:#886f00;stroke-width:1;stroke-linecap:butt;stroke-linejoin:miter;stroke-miterlimit:4;stroke-dasharray:none;stroke-dashoffset:0"
         id="rect3251" />
      <rect
         x="45.493999"
         y="10.5"
         stroke-miterlimit="4"
         width="2"
         height="5"
         ry="1"
         rx="1"
         style="fill:#fce94f;fill-rule:evenodd;stroke:#886f00;stroke-width:1;stroke-linecap:butt;stroke-linejoin:miter;stroke-miterlimit:4;stroke-dasharray:none;stroke-dashoffset:0"
         id="rect3253" />
      <rect
         x="17.993999"
         y="20"
         width="29"
         height="1"
         id="rect3255"
         style="opacity:0.28070003;fill:#000000;fill-rule:evenodd" />
      <rect
         x="17.993999"
         y="22.982"
         width="29"
         height="1"
         id="rect3257"
         style="opacity:0.28070003;fill:#000000;fill-rule:evenodd" />
      <rect
         x="17.993999"
         y="26.004"
         width="13"
         height="1"
         id="rect3259"
         style="opacity:0.28070003;fill:#000000;fill-rule:evenodd" />
      <rect
         x="17.993999"
         y="30.986"
         width="29"
         height="1"
         id="rect3261"
         style="opacity:0.28070003;fill:#000000;fill-rule:evenodd" />
      <rect
         x="17.993999"
         y="34.007999"
         width="29"
         height="1"
         id="rect3263"
         style="opacity:0.28070003;fill:#000000;fill-rule:evenodd" />
      <rect
         x="17.993999"
         y="37.029999"
         width="29"
         height="1"
         id="rect3265"
         style="opacity:0.28070003;fill:#000000;fill-rule:evenodd" />
      <rect
         x="17.993999"
         y="40.051998"
         width="8"
         height="1"
         id="rect3267"
         style="opacity:0.28070003;fill:#000000;fill-rule:evenodd" />
      <path
         stroke-miterlimit="4"
         d="m 26.092,40.5 5.625,-5.625 20.094,-9.75 c 3.25,-1.25 5.1875,3.375 2.3125,5 l -20.031,9.375 -8,1 z"
         style="fill:#cb9022;fill-rule:evenodd;stroke:#5c410c;stroke-width:1;stroke-linecap:butt;stroke-linejoin:miter;stroke-miterlimit:4;stroke-dasharray:none;stroke-dashoffset:0"
         id="path3269"
         inkscape:connector-curvature="0" />
      <path
         d="m 47.082,28 c 0,0 1.4375,0.09375 2,1.3438 0.57949,1.2878 0,2.6562 0,2.6562 l 5.0312,-2.4688 c 0,0 1.452,-0.88137 0.65625,-2.8438 -0.78491,-1.9356 -2.6875,-1.1562 -2.6875,-1.1562 l -5,2.4688 z"
         id="path3271"
         style="fill:url(#linearGradient3329);fill-rule:evenodd"
         inkscape:connector-curvature="0" />
      <path
         d="m 47.082,28 c 0,0 1.4375,0.09375 2,1.3438 0.57949,1.2878 0,2.6562 0,2.6562 l 2,-1 c 0,0 0.82703,-1.3189 0.21875,-2.6875 -0.626,-1.406 -2.219,-1.312 -2.219,-1.312 l -2,1 z"
         id="path3273"
         style="fill:url(#linearGradient3331);fill-rule:evenodd"
         inkscape:connector-curvature="0" />
      <path
         d="m 27.519,39.781 4.5,-4.5 c 1.5,0.8125 2.2812,2.1562 1.875,3.7188 l -6.375,0.78125 z"
         id="path3275"
         style="fill:url(#radialGradient3333);fill-rule:evenodd"
         inkscape:connector-curvature="0" />
      <path
         d="m 28.863,38.375 -1.625,1.5938 2.3438,-0.3125 c 0.21875,-0.71875 -0.1875,-1.0625 -0.71875,-1.2812 z"
         id="path3277"
         style="fill:url(#linearGradient3335);fill-rule:evenodd"
         inkscape:connector-curvature="0" />
      <path
         d="m 32.019,35.25 1.5625,1.25 15.387,-7.3187 c -0.445,-0.856 -1.242,-1.084 -1.903,-1.162 l -15.047,7.231 z"
         id="path3279"
         inkscape:connector-curvature="0"
         style="fill:#ffffff;fill-opacity:0.36363639;fill-rule:evenodd" />
      <path
         d="m 33.894,39.062 0.1875,-0.75 15.231,-7.1296 c 0,0 -0.11016,0.61363 -0.21588,0.74935 l -15.203,7.131 z"
         id="path3281"
         inkscape:connector-curvature="0"
         style="fill:#000000;fill-opacity:0.36363639;fill-rule:evenodd" />
      <path
         d="m 20.976,38.083 a 6.1527,1.5235 0 0 1 -12.305,0 6.1527,1.5235 0 1 1 12.305,0 z"
         id="path3283"
         style="opacity:0.07000002;fill:url(#radialGradient3337)"
         inkscape:connector-curvature="0" />
      <path
         stroke-miterlimit="0"
         d="m 21.188,53.331 a 5.6882,2.0528 0 0 1 -11.376,0 5.6882,2.0528 0 1 1 11.376,0 z"
         style="opacity:0.2;fill:#000000;stroke:#000000;stroke-width:0.67398685;stroke-linecap:round;stroke-linejoin:round;stroke-miterlimit:0;stroke-dasharray:none;filter:url(#filter3436)"
         id="path3285"
         inkscape:connector-curvature="0" />
      <path
         d="m 20.671,26.809 c -0.51711,-1.0196 -9.8251,-1.0196 -10.342,0 0,1.5293 -1.5513,6.1174 -1.5513,10.196 0,4.0783 5.1711,6.6272 6.7224,6.6272 1.5513,0 6.7224,-2.5489 6.7224,-6.6272 0,-4.0783 -1.5513,-8.6663 -1.5513,-10.196 z"
         id="path3287"
         style="fill:url(#radialGradient3339);fill-rule:evenodd"
         inkscape:connector-curvature="0" />
      <path
         stroke-miterlimit="0"
         d="m 20.978,52.512 a 5.4785,1.9784361 0 1 1 -10.957,0 5.4785,1.9784361 0 1 1 10.957,0 z"
         style="fill:url(#linearGradient3341);stroke:#888a85;stroke-width:1.04329979;stroke-linecap:round;stroke-linejoin:round;stroke-miterlimit:0;stroke-dasharray:none"
         id="path3289"
         inkscape:connector-curvature="0" />
      <path
         stroke-miterlimit="0"
         d="m 20,52.512 a 4.5,1.2723 0 1 1 -9,0 4.5,1.2723 0 1 1 9,0 z"
         style="fill:none;stroke:url(#linearGradient3343);stroke-width:1;stroke-linecap:round;stroke-linejoin:round;stroke-miterlimit:0;stroke-dasharray:none"
         id="path3291"
         inkscape:connector-curvature="0" />
      <path
         d="m 12.914,42.612 c 1.0342,1.0196 2.0684,2.5489 2.0684,8.1565 0,1.0196 0.13988,1.5293 0.51711,1.5293 0.37723,0 0.51711,-0.50978 0.51711,-1.5293 0,-5.6076 1.0342,-7.137 2.0684,-8.1565"
         id="path3293"
         style="fill:url(#linearGradient3345);fill-rule:evenodd;stroke:#888a85;stroke-width:1;stroke-linecap:round;stroke-linejoin:miter"
         inkscape:connector-curvature="0" />
      <path
         d="m 8.5,35.512 c 0,6 5.4487,8.1197 7,8.1197 1.5513,0 7,-2.1197 7,-8.1197"
         id="path3295"
         style="fill:url(#radialGradient3347);fill-rule:evenodd"
         inkscape:connector-curvature="0" />
      <path
         stroke-miterlimit="0"
         d="m 21.833,35.475 a 6.3335,1.5293483 0 0 1 -12.667,0 6.3335,1.5293483 0 1 1 12.667,0 z"
         style="fill:url(#radialGradient3349);stroke:url(#linearGradient3351);stroke-width:0.67398685;stroke-linecap:round;stroke-linejoin:round;stroke-miterlimit:0;stroke-dasharray:none"
         id="path3297"
         inkscape:connector-curvature="0" />
      <path
         d="m 20.094,28.825 -10.5,6.9062 c -0.47185,2.1071 0.57612,3.8839 1.9688,5.1562 0.69977,0.63931 1.4779,1.1545 2.1875,1.5 0.70965,0.3455 1.3655,0.53125 1.75,0.53125 0.38459,0 1.0458,-0.20765 1.7812,-0.5625 0.73541,-0.35485 1.5613,-0.85244 2.2812,-1.5312 1.4399,-1.3576 2.4993,-3.3228 1.8438,-5.7812 -0.0015,-0.01036 -0.0015,-0.02089 0,-0.03125 -0.32628,-2.6102 -0.67143,-3.938 -1.3125,-6.1875 z"
         id="path3299"
         style="fill:none;stroke:url(#linearGradient3353);stroke-width:1;stroke-linecap:round;stroke-linejoin:miter"
         inkscape:connector-curvature="0" />
      <path
         d="m 11.731,28.679 3.1027,0 c 0,0 -1.5513,6.1174 -1.5513,8.6663 0,1.5293 1.0342,2.5489 0.51711,3.0587 -0.51711,0.50978 -3.1027,-1.4789 -3.1027,-4.0783 0,-1.0196 0.51711,-4.0783 1.0342,-7.6467 z"
         id="path3301"
         style="fill:url(#linearGradient3355);fill-rule:evenodd"
         inkscape:connector-curvature="0" />
      <path
         stroke-miterlimit="0"
         d="M 20.684,26.739 A 5.1841,1.2399 0 1 1 20.683,26.718"
         style="fill:none;stroke:#919191;stroke-width:0.97392541;stroke-linecap:round;stroke-linejoin:round;stroke-miterlimit:0;stroke-dasharray:none"
         id="path3303"
         inkscape:connector-curvature="0" />
      <path
         stroke-miterlimit="0"
         d="m 20.5,27.977 c -0.33333,0.33333 -2.3078,0.69994 -5.1622,0.69994 -2.8544,0 -4.5044,-0.3666 -4.8378,-0.69994"
         id="path3305"
         inkscape:connector-curvature="0"
         style="fill:none;stroke:#ffffff;stroke-width:0.67398679;stroke-linecap:round;stroke-linejoin:round;stroke-miterlimit:0" />
      <path
         stroke-miterlimit="0"
         d="m 21.5,35.012 c 0,0.57036 -2.3333,1.3333 -6.0127,1.3666 -3.679,0.033 -5.987,-0.796 -5.987,-1.367"
         id="path3307"
         style="fill:none;stroke:url(#radialGradient3357);stroke-width:0.67398679;stroke-linecap:round;stroke-linejoin:round;stroke-miterlimit:0"
         inkscape:connector-curvature="0" />
      <path
         d="m 14.167,44.012 c 0,0 0.33333,0.66667 1.3333,0.63923 1,-0.02744 1.3333,-0.63923 1.3333,-0.63923"
         id="path3309"
         inkscape:connector-curvature="0"
         style="opacity:0.35;fill:none;stroke:#000000;stroke-width:0.66666669px;stroke-linecap:round;stroke-linejoin:round" />
      <path
         d="m 15.5,52.012 2.5855,-1.0196 2.5532,0.12744 -5.1388,0.89212 z"
         id="path3311"
         style="fill:url(#linearGradient3359);fill-rule:evenodd;stroke:url(#linearGradient3361);stroke-width:0.66666675px;stroke-linecap:round;stroke-linejoin:round;filter:url(#filter3391)"
         inkscape:connector-curvature="0" />
      <path
         d="M 20.671,26.809 C 20,25.012 11,25.012 10.329,26.809 c 0,1.529 -1.829,6.125 -1.829,10.203 0,4.0783 5.4487,6.6197 7,6.6197 1.5513,0 7,-2.5414 7,-6.6197 0,-4.0783 -1.8289,-8.6738 -1.8289,-10.203 z"
         id="path3313"
         inkscape:connector-curvature="0"
         style="fill:none;stroke:#919191;stroke-width:1;stroke-linecap:round;stroke-linejoin:miter" />
    </g>
  </g>
</svg>
