<?xml version="1.0" encoding="UTF-8" standalone="no"?>
<!-- Created with Inkscape (http://www.inkscape.org/) -->

<svg
   xmlns:dc="http://purl.org/dc/elements/1.1/"
   xmlns:cc="http://creativecommons.org/ns#"
   xmlns:rdf="http://www.w3.org/1999/02/22-rdf-syntax-ns#"
   xmlns:svg="http://www.w3.org/2000/svg"
   xmlns="http://www.w3.org/2000/svg"
   xmlns:xlink="http://www.w3.org/1999/xlink"
   xmlns:sodipodi="http://sodipodi.sourceforge.net/DTD/sodipodi-0.dtd"
   xmlns:inkscape="http://www.inkscape.org/namespaces/inkscape"
   width="64"
   height="64"
   id="svg4728"
   version="1.1"
   inkscape:version="0.91 r13725"
   viewBox="0 0 64 64"
   sodipodi:docname="taskmgr.svg">
  <defs
     id="defs4730">
    <linearGradient
       inkscape:collect="always"
       xlink:href="#linearGradient5129"
       id="linearGradient3297"
       gradientUnits="userSpaceOnUse"
       gradientTransform="matrix(0.06809735,0,0,0.041103,7.387672,29.87608)"
       x1="302.85999"
       y1="366.64999"
       x2="302.85999"
       y2="609.51001" />
    <linearGradient
       id="linearGradient5129"
       y2="609.51001"
       gradientUnits="userSpaceOnUse"
       x2="302.85999"
       gradientTransform="matrix(0.06809735,0,0,0.041103,7.387672,29.87608)"
       y1="366.64999"
       x1="302.85999">
      <stop
         id="stop5050-7"
         stop-color="#000"
         stop-opacity="0"
         offset="0" />
      <stop
         id="stop5056-7"
         stop-color="#000"
         offset="0.5" />
      <stop
         id="stop5052-5"
         stop-color="#000"
         stop-opacity="0"
         offset="1" />
    </linearGradient>
    <radialGradient
       inkscape:collect="always"
       xlink:href="#linearGradient5060-9"
       id="radialGradient3299"
       gradientUnits="userSpaceOnUse"
       gradientTransform="matrix(0.06809735,0,0,0.041103,7.401074,29.87608)"
       cx="605.71002"
       cy="486.64999"
       r="117.14" />
    <linearGradient
       id="linearGradient5060-9">
      <stop
         id="stop5062-0"
         stop-color="#000"
         offset="0" />
      <stop
         id="stop5064-8"
         stop-color="#000"
         stop-opacity="0"
         offset="1" />
    </linearGradient>
    <radialGradient
       inkscape:collect="always"
       xlink:href="#linearGradient5060-9"
       id="radialGradient3301"
       gradientUnits="userSpaceOnUse"
       gradientTransform="matrix(-0.06809735,0,0,0.041103,56.598937,29.87608)"
       cx="605.71002"
       cy="486.64999"
       r="117.14" />
    <linearGradient
       inkscape:collect="always"
       xlink:href="#linearGradient5135"
       id="linearGradient3303"
       gradientUnits="userSpaceOnUse"
       gradientTransform="matrix(0.952387,0,0,1.018339,9.080096,6.058373)"
       x1="25.861"
       y1="26.134001"
       x2="18.299999"
       y2="19.568001" />
    <linearGradient
       id="linearGradient5135"
       y2="19.568001"
       gradientUnits="userSpaceOnUse"
       x2="18.299999"
       gradientTransform="matrix(0.952387,0,0,1.018339,9.080096,6.058373)"
       y1="26.134001"
       x1="25.861">
      <stop
         id="stop2208-8"
         stop-color="#c3c6c0"
         offset="0" />
      <stop
         id="stop2210-9"
         stop-color="#e8eae6"
         offset="1" />
    </linearGradient>
    <linearGradient
       inkscape:collect="always"
       xlink:href="#linearGradient5137"
       id="linearGradient3305"
       gradientUnits="userSpaceOnUse"
       gradientTransform="matrix(0.952387,0,0,1.018339,9.080096,6.058373)"
       x1="0.0012142"
       y1="24.011999"
       x2="47.999001"
       y2="24.011999" />
    <linearGradient
       id="linearGradient5137"
       y2="24.011999"
       gradientUnits="userSpaceOnUse"
       x2="47.999001"
       gradientTransform="matrix(0.952387,0,0,1.018339,9.080096,6.058373)"
       y1="24.011999"
       x1="0.0012142">
      <stop
         id="stop2216-68"
         stop-color="#a9aaa7"
         offset="0" />
      <stop
         id="stop2218-0"
         stop-color="#676964"
         offset="1" />
    </linearGradient>
    <radialGradient
       inkscape:collect="always"
       xlink:href="#radialGradient5139"
       id="radialGradient3307"
       gradientUnits="userSpaceOnUse"
       gradientTransform="matrix(1.768625,0,0,1.387102,-10.504983,-7.29268)"
       cx="23.993999"
       cy="32.266998"
       r="19.089001" />
    <radialGradient
       id="radialGradient5139"
       gradientUnits="userSpaceOnUse"
       cy="32.266998"
       cx="23.993999"
       gradientTransform="matrix(1.768625,0,0,1.387102,-10.504983,-7.29268)"
       r="19.089001">
      <stop
         id="stop2224-10"
         stop-color="#5187d6"
         offset="0" />
      <stop
         id="stop2227-51"
         stop-color="#1e4580"
         offset="1" />
    </radialGradient>
    <linearGradient
       inkscape:collect="always"
       xlink:href="#linearGradient5141"
       id="linearGradient3309"
       gradientUnits="userSpaceOnUse"
       gradientTransform="matrix(0.952387,0,0,1.015657,9.080096,7.123675)"
       x1="20.339001"
       y1="19.636999"
       x2="46.091999"
       y2="39.708" />
    <linearGradient
       id="linearGradient5141"
       y2="39.708"
       gradientUnits="userSpaceOnUse"
       x2="46.091999"
       gradientTransform="matrix(0.952387,0,0,1.015657,9.080096,7.123675)"
       y1="19.636999"
       x1="20.339001">
      <stop
         id="stop2240-0"
         stop-color="#FFF"
         offset="0" />
      <stop
         id="stop2242-8"
         stop-color="#FFF"
         stop-opacity="0"
         offset="1" />
    </linearGradient>
    <linearGradient
       inkscape:collect="always"
       xlink:href="#linearGradient5143"
       id="linearGradient3311"
       gradientUnits="userSpaceOnUse"
       gradientTransform="matrix(3.809547,0,0,1.750325,-8.062863,-7.78719)"
       x1="8.8207998"
       y1="12.538"
       x2="12.499"
       y2="24.238001" />
    <linearGradient
       id="linearGradient5143"
       y2="24.238001"
       gradientUnits="userSpaceOnUse"
       x2="12.499"
       gradientTransform="matrix(3.809547,0,0,1.750325,-8.062863,-7.78719)"
       y1="12.538"
       x1="8.8207998">
      <stop
         id="stop2182-0"
         stop-color="#FFF"
         offset="0" />
      <stop
         id="stop2184-6"
         stop-color="#FFF"
         stop-opacity="0"
         offset="1" />
    </linearGradient>
    <linearGradient
       inkscape:collect="always"
       xlink:href="#linearGradient5145"
       id="linearGradient3313"
       gradientUnits="userSpaceOnUse"
       gradientTransform="translate(7.937497,8)"
       x1="35.694"
       y1="37.334"
       x2="15.044"
       y2="5.9589" />
    <linearGradient
       id="linearGradient5145"
       y2="5.9589"
       gradientUnits="userSpaceOnUse"
       x2="15.044"
       gradientTransform="translate(7.937497,8)"
       y1="37.334"
       x1="35.694">
      <stop
         id="stop2225-6"
         stop-color="#FFF"
         offset="0" />
      <stop
         id="stop2229-2"
         stop-color="#FFF"
         stop-opacity="0"
         offset="1" />
    </linearGradient>
    <radialGradient
       inkscape:collect="always"
       xlink:href="#linearGradient5060-9"
       id="radialGradient3315"
       gradientUnits="userSpaceOnUse"
       gradientTransform="matrix(0.4206982,0,0,0.10417298,31.568332,32.61332)"
       cx="37.375"
       cy="33.188"
       r="14.625" />
    <filter
       style="color-interpolation-filters:sRGB"
       id="filter3436"
       height="1.2801698"
       width="1.1580106"
       y="-0.14008497"
       x="-0.079005308">
      <feGaussianBlur
         id="feGaussianBlur3438"
         stdDeviation="0.3190069" />
    </filter>
    <radialGradient
       inkscape:collect="always"
       xlink:href="#linearGradient3346-2"
       id="radialGradient3317"
       gradientUnits="userSpaceOnUse"
       gradientTransform="matrix(1.5911065,-0.078428,0.09931994,1.9582576,5.587055,-3.56656)"
       cx="27.5"
       cy="22.614"
       r="6.5" />
    <linearGradient
       id="linearGradient3346-2">
      <stop
         id="stop3348-8"
         stop-color="#737373"
         offset="0" />
      <stop
         id="stop3350-47"
         stop-color="#000"
         stop-opacity="0"
         offset="1" />
    </linearGradient>
    <linearGradient
       inkscape:collect="always"
       xlink:href="#linearGradient3228-2"
       id="linearGradient3319"
       gradientUnits="userSpaceOnUse"
       gradientTransform="matrix(1.2744752,0,0,1.0288787,18.655817,39.18233)"
       x1="27.681"
       y1="14.243"
       x2="21.440001"
       y2="9.2770004" />
    <linearGradient
       id="linearGradient3228-2">
      <stop
         id="stop3230-4"
         stop-color="#373737"
         offset="0" />
      <stop
         id="stop3232-0"
         stop-color="#373737"
         stop-opacity="0"
         offset="1" />
    </linearGradient>
    <linearGradient
       inkscape:collect="always"
       xlink:href="#linearGradient3198-1"
       id="linearGradient3321"
       gradientUnits="userSpaceOnUse"
       gradientTransform="matrix(1.2818465,0,0,0.9398128,18.486278,40.16206)"
       x1="25.268999"
       y1="12.038"
       x2="17.799"
       y2="5.0353999" />
    <linearGradient
       id="linearGradient3198-1">
      <stop
         id="stop3200-7"
         stop-color="#FFF"
         offset="0" />
      <stop
         id="stop3202-5"
         stop-color="#FFF"
         stop-opacity="0"
         offset="1" />
    </linearGradient>
    <linearGradient
       inkscape:collect="always"
       xlink:href="#linearGradient3220-9"
       id="linearGradient3323"
       gradientUnits="userSpaceOnUse"
       gradientTransform="matrix(1.0342194,0,0,1.0195661,23.147484,14.091378)"
       x1="29"
       y1="33"
       x2="19"
       y2="27" />
    <linearGradient
       id="linearGradient3220-9">
      <stop
         id="stop3222-0"
         stop-color="#373737"
         offset="0" />
      <stop
         id="stop3224-81"
         stop-color="#FFF"
         offset="1" />
    </linearGradient>
    <radialGradient
       inkscape:collect="always"
       xlink:href="#linearGradient3189-3"
       id="radialGradient3325"
       gradientUnits="userSpaceOnUse"
       gradientTransform="matrix(0.9811466,-0.3224151,0.1189352,0.3517503,21.399558,38.75251)"
       cx="26.625"
       cy="26.577"
       r="12.5" />
    <linearGradient
       id="linearGradient3189-3">
      <stop
         id="stop3191-1"
         stop-color="#e40000"
         offset="0" />
      <stop
         id="stop3193-1"
         stop-color="#490000"
         offset="1" />
    </linearGradient>
    <radialGradient
       inkscape:collect="always"
       xlink:href="#linearGradient3171-0"
       id="radialGradient3327"
       gradientUnits="userSpaceOnUse"
       gradientTransform="matrix(1.2818465,0,0,0.46520969,18.486277,28.34583)"
       cx="25.017"
       cy="13.192"
       r="9.7512999" />
    <linearGradient
       id="linearGradient3171-0">
      <stop
         id="stop3173-34"
         stop-color="#fd0000"
         offset="0" />
      <stop
         id="stop3175-0"
         stop-color="#6a0000"
         offset="1" />
    </linearGradient>
    <linearGradient
       inkscape:collect="always"
       xlink:href="#linearGradient4402-3"
       id="linearGradient3329"
       gradientUnits="userSpaceOnUse"
       gradientTransform="matrix(1.2818465,0,0,0.9398128,18.486277,23.125191)"
       x1="27.216999"
       y1="15.984"
       x2="22.035999"
       y2="7.1352" />
    <linearGradient
       id="linearGradient4402-3">
      <stop
         id="stop4404-9"
         stop-color="#e80000"
         offset="0" />
      <stop
         id="stop4406-19"
         stop-color="#490000"
         offset="1" />
    </linearGradient>
    <linearGradient
       inkscape:collect="always"
       xlink:href="#linearGradient3198-1"
       id="linearGradient3331"
       gradientUnits="userSpaceOnUse"
       gradientTransform="matrix(1.0293043,0,0,1.0285483,23.300244,14.143147)"
       x1="30.375999"
       y1="25.27"
       x2="22"
       y2="19" />
    <linearGradient
       inkscape:collect="always"
       xlink:href="#linearGradient3198-1"
       id="linearGradient3333"
       gradientUnits="userSpaceOnUse"
       gradientTransform="matrix(1.0342194,0,0,1.019566,24.032145,13.412308)"
       x1="17.605"
       y1="18.312"
       x2="23"
       y2="18.312" />
    <radialGradient
       inkscape:collect="always"
       xlink:href="#linearGradient3198-1"
       id="radialGradient3335"
       gradientUnits="userSpaceOnUse"
       gradientTransform="matrix(1.0342194,0,0,0.1874519,31.408558,31.69301)"
       cx="18"
       cy="14.19"
       r="5.5054998" />
    <linearGradient
       inkscape:collect="always"
       xlink:href="#linearGradient3373-8"
       id="linearGradient3337"
       gradientUnits="userSpaceOnUse"
       gradientTransform="translate(-8.0000004,15.967633)"
       x1="16"
       y1="27.5"
       x2="20.5"
       y2="25.5" />
    <linearGradient
       id="linearGradient3373-8">
      <stop
         id="stop3375-0"
         stop-color="#000"
         offset="0" />
      <stop
         id="stop3377-5"
         stop-color="#373737"
         stop-opacity="0"
         offset="1" />
    </linearGradient>
    <linearGradient
       inkscape:collect="always"
       xlink:href="#linearGradient5060-9"
       id="linearGradient3339"
       gradientUnits="userSpaceOnUse"
       gradientTransform="translate(-8.0000004,15.967633)"
       x1="16"
       y1="27"
       x2="21.5"
       y2="27" />
    <filter
       style="color-interpolation-filters:sRGB"
       id="filter3391-0"
       height="1.336"
       width="1.1344"
       y="-0.168"
       x="-0.067199998">
      <feGaussianBlur
         id="feGaussianBlur3393-0"
         stdDeviation="0.14" />
    </filter>
    <radialGradient
       inkscape:collect="always"
       xlink:href="#linearGradient3346-2"
       id="radialGradient3341"
       gradientUnits="userSpaceOnUse"
       gradientTransform="matrix(1.5911065,-0.078428,0.09931994,1.9582576,5.587055,-3.56656)"
       cx="27.5"
       cy="22.614"
       r="6.5" />
    <radialGradient
       inkscape:collect="always"
       xlink:href="#linearGradient5060-9"
       id="radialGradient3343"
       gradientUnits="userSpaceOnUse"
       gradientTransform="matrix(0.4206982,0,0,0.10417298,31.568332,32.61332)"
       cx="37.375"
       cy="33.188"
       r="14.625" />
    <filter
       style="color-interpolation-filters:sRGB"
       id="filter4585"
       height="1.2801698"
       width="1.1580106"
       y="-0.14008497"
       x="-0.079005308">
      <feGaussianBlur
         id="feGaussianBlur4587"
         stdDeviation="0.3190069" />
    </filter>
    <radialGradient
       inkscape:collect="always"
       xlink:href="#linearGradient3189-3"
       id="radialGradient3351"
       gradientUnits="userSpaceOnUse"
       gradientTransform="matrix(0.9811466,-0.3224151,0.1189352,0.3517503,21.399558,38.75251)"
       cx="26.625"
       cy="26.577"
       r="12.5" />
    <radialGradient
       inkscape:collect="always"
       xlink:href="#linearGradient3171-0"
       id="radialGradient3353"
       gradientUnits="userSpaceOnUse"
       gradientTransform="matrix(1.2818465,0,0,0.46520969,18.486277,28.34583)"
       cx="25.017"
       cy="13.192"
       r="9.7512999" />
    <radialGradient
       inkscape:collect="always"
       xlink:href="#linearGradient3198-1"
       id="radialGradient3359"
       gradientUnits="userSpaceOnUse"
       gradientTransform="matrix(1.0342194,0,0,0.1874519,31.408558,31.69301)"
       cx="18"
       cy="14.19"
       r="5.5054998" />
    <filter
       style="color-interpolation-filters:sRGB"
       id="filter4659"
       height="1.336"
       width="1.1344"
       y="-0.168"
       x="-0.067199998">
      <feGaussianBlur
         id="feGaussianBlur4661"
         stdDeviation="0.14" />
    </filter>
    <linearGradient
       inkscape:collect="always"
       xlink:href="#linearGradient3228-2"
       id="linearGradient5607"
       gradientUnits="userSpaceOnUse"
       gradientTransform="matrix(1.2744752,0,0,1.0288787,18.655817,39.18233)"
       x1="27.681"
       y1="14.243"
       x2="21.440001"
       y2="9.2770004" />
    <linearGradient
       inkscape:collect="always"
       xlink:href="#linearGradient3198-1"
       id="linearGradient5609"
       gradientUnits="userSpaceOnUse"
       gradientTransform="matrix(1.2818465,0,0,0.9398128,18.486278,40.16206)"
       x1="25.268999"
       y1="12.038"
       x2="17.799"
       y2="5.0353999" />
    <linearGradient
       inkscape:collect="always"
       xlink:href="#linearGradient3220-9"
       id="linearGradient5611"
       gradientUnits="userSpaceOnUse"
       gradientTransform="matrix(1.0342194,0,0,1.0195661,23.147484,14.091378)"
       x1="29"
       y1="33"
       x2="19"
       y2="27" />
    <linearGradient
       inkscape:collect="always"
       xlink:href="#linearGradient4402-3"
       id="linearGradient5613"
       gradientUnits="userSpaceOnUse"
       gradientTransform="matrix(1.2818465,0,0,0.9398128,18.486277,23.125191)"
       x1="27.216999"
       y1="15.984"
       x2="22.035999"
       y2="7.1352" />
    <linearGradient
       inkscape:collect="always"
       xlink:href="#linearGradient3198-1"
       id="linearGradient5615"
       gradientUnits="userSpaceOnUse"
       gradientTransform="matrix(1.0342194,0,0,1.019566,24.032145,13.412308)"
       x1="17.605"
       y1="18.312"
       x2="23"
       y2="18.312" />
    <linearGradient
       inkscape:collect="always"
       xlink:href="#linearGradient3373-8"
       id="linearGradient5617"
       gradientUnits="userSpaceOnUse"
       gradientTransform="translate(-8.0000004,15.967633)"
       x1="16"
       y1="27.5"
       x2="20.5"
       y2="25.5" />
    <linearGradient
       inkscape:collect="always"
       xlink:href="#linearGradient5060-9"
       id="linearGradient5619"
       gradientUnits="userSpaceOnUse"
       gradientTransform="translate(-8.0000004,15.967633)"
       x1="16"
       y1="27"
       x2="21.5"
       y2="27" />
  </defs>
  <sodipodi:namedview
     id="base"
     pagecolor="#ffffff"
     bordercolor="#666666"
     borderopacity="1.0"
     inkscape:pageopacity="0.0"
     inkscape:pageshadow="2"
     inkscape:zoom="5.5"
     inkscape:cx="-4.6237924"
     inkscape:cy="38.335753"
     inkscape:current-layer="layer1"
     showgrid="true"
     inkscape:document-units="px"
     inkscape:grid-bbox="true"
     inkscape:window-width="1410"
     inkscape:window-height="855"
     inkscape:window-x="30"
     inkscape:window-y="0"
     inkscape:window-maximized="1" />
  <metadata
     id="metadata4733">
    <rdf:RDF>
      <cc:Work
         rdf:about="">
        <dc:format>image/svg+xml</dc:format>
        <dc:type
           rdf:resource="http://purl.org/dc/dcmitype/StillImage" />
        <dc:title></dc:title>
      </cc:Work>
    </rdf:RDF>
  </metadata>
  <g
     id="layer1"
     inkscape:label="Layer 1"
     inkscape:groupmode="layer">
    <g
       transform="matrix(1.2549853,0,0,1.3619522,-8.2504329,-11.642955)"
       id="g3199">
      <rect
         x="15.559"
         y="44.945999"
         width="32.881001"
         height="9.9821997"
         style="color:#000000;opacity:0.40206;fill:url(#linearGradient3297);fill-rule:nonzero"
         id="rect3201" />
      <path
         d="m 48.441,44.947 0,9.9816 c 3.5068,0.0188 8.4778,-2.2364 8.4778,-4.9914 0,-2.7551 -3.9134,-4.9902 -8.4778,-4.9902 z"
         style="color:#000000;opacity:0.40206185;fill:url(#radialGradient3299);fill-rule:nonzero"
         id="path3203"
         inkscape:connector-curvature="0" />
      <path
         d="m 15.559,44.947 0,9.9816 c -3.5068,0.0188 -8.4778,-2.2364 -8.4778,-4.9914 0,-2.7551 3.9134,-4.9902 8.4778,-4.9902 z"
         style="color:#000000;opacity:0.40206185;fill:url(#radialGradient3301);fill-rule:nonzero"
         id="path3205"
         inkscape:connector-curvature="0" />
      <rect
         x="9.5573997"
         y="9.6601"
         stroke-miterlimit="4"
         width="44.759998"
         height="41.702"
         ry="4.566"
         rx="4.566"
         style="fill:url(#linearGradient3303);fill-rule:evenodd;stroke:url(#linearGradient3305);stroke-width:1;stroke-linecap:round;stroke-linejoin:round;stroke-miterlimit:4;stroke-dasharray:none;stroke-dashoffset:0"
         id="rect3207" />
      <rect
         x="13.343"
         y="13.482"
         stroke-miterlimit="4"
         width="37.178001"
         height="28.955"
         ry="1.6947"
         rx="1.6947"
         style="fill:url(#radialGradient3307);fill-rule:evenodd;stroke:#173562;stroke-width:1;stroke-linecap:round;stroke-linejoin:round;stroke-miterlimit:4;stroke-dasharray:none;stroke-dashoffset:0"
         id="rect3209" />
      <path
         stroke-miterlimit="10"
         d="m 20.328,28.935 -6.0218,0 0,1.217 7.7188,0 1.4059,-5.9131 3.4625,13.698 3.2087,-10.82 2.8945,5.9118 3.887,-3.512 12.708,0 0,-2.0596 -13.15,0 -3.1702,3.1396 -3.2755,-6.6592 -3.0098,8.1749 -3.2685,-12.864 -3.3905,9.6865 z"
         style="fill:#ecffd9;fill-rule:evenodd;stroke:#c3ea9b;stroke-width:1;stroke-linecap:butt;stroke-linejoin:miter;stroke-miterlimit:10;stroke-dasharray:none;stroke-opacity:0.41618497"
         id="path3211"
         inkscape:connector-curvature="0" />
      <rect
         x="10.491"
         y="10.654"
         stroke-miterlimit="4"
         width="42.895"
         height="39.646999"
         ry="4.1303"
         rx="4.1303"
         style="fill:none;stroke:url(#linearGradient3309);stroke-width:1;stroke-linecap:round;stroke-linejoin:round;stroke-miterlimit:4;stroke-dasharray:none;stroke-dashoffset:0"
         id="rect3213" />
      <path
         stroke-miterlimit="4"
         d="m 19.453,28.012 -5.1468,0 0,3.0488 8.5938,-0.125 0.65592,-3.0426 3.3447,12.708 3.5766,-11.467 2.5195,5.4161 4.262,-4.1086 12.333,-0.125 -0.75,-3.9095 -12.4,-0.125 -3.045,3.175 -3.401,-7.79 -2.635,6.938 -3.518,-12.27 -4.391,11.678 z"
         style="opacity:0.38068183;fill:#ecffd9;fill-rule:evenodd;stroke:#c3ea9b;stroke-width:1.00000036;stroke-linecap:butt;stroke-linejoin:miter;stroke-miterlimit:4;stroke-dasharray:none;stroke-opacity:0.41618497"
         id="path3215"
         inkscape:connector-curvature="0" />
      <path
         d="m 14.781,14.969 0,8.8263 c 3.6699,0.68811 7.7388,1.0799 12.031,1.0799 8.9353,0 16.937,-1.6648 22.281,-4.2782 l 0,-5.6281 -34.312,0 z"
         id="path3217"
         style="opacity:0.43181817;fill:url(#linearGradient3311);fill-rule:evenodd"
         inkscape:connector-curvature="0" />
      <path
         stroke-miterlimit="10"
         d="m 47.25,46.5 -1.0625,-0.46875 c -0.25681,-0.13957 -0.56234,-0.21875 -0.875,-0.21875 -1.0005,0 -1.8125,0.812 -1.8125,1.8125 0,1.0005 0.812,1.8125 1.8125,1.8125 0.96923,0 1.7639,-0.76152 1.8125,-1.7188 3.92e-4,-0.008 -2.95e-4,-0.0235 0,-0.0312 L 47.25,46.5 Z"
         style="color:#000000;opacity:0.07954544;fill:#000000;fill-rule:nonzero;stroke:#000000;stroke-width:1;stroke-linecap:butt;stroke-linejoin:miter;stroke-miterlimit:10;stroke-dasharray:none;stroke-dashoffset:0"
         id="path3219"
         inkscape:connector-curvature="0" />
      <path
         stroke-miterlimit="10"
         d="m 37.118,46.232 -0.09939,1.1652 c -0.03733,0.28989 -7.43e-4,0.60339 0.11225,0.89491 0.36157,0.93289 1.4121,1.3966 2.345,1.035 0.93288,-0.36157 1.3966,-1.4121 1.035,-2.345 -0.35027,-0.90373 -1.3475,-1.3695 -2.2576,-1.0689 -0.0073,0.002 -0.02181,0.009 -0.02914,0.0113 l -1.1061,0.30751 z"
         style="color:#000000;opacity:0.07954544;fill:#000000;fill-rule:nonzero;stroke:#000000;stroke-width:1;stroke-linecap:butt;stroke-linejoin:miter;stroke-miterlimit:10;stroke-dasharray:none;stroke-dashoffset:0"
         id="path3221"
         inkscape:connector-curvature="0" />
      <path
         stroke-miterlimit="10"
         d="M 33.625,46.5 32.6875,46.03125 C 32.43069,45.89168 32.12516,45.8125 31.8125,45.8125 30.812,45.8125 30,46.6245 30,47.625 c 0,1.0005 0.812,1.8125 1.8125,1.8125 0.96923,0 1.7639,-0.76152 1.8125,-1.7188 3.92e-4,-0.008 -2.95e-4,-0.0235 0,-0.0312 l 0,-1.1875 z"
         style="color:#000000;opacity:0.07954544;fill:#000000;fill-rule:nonzero;stroke:#000000;stroke-width:1;stroke-linecap:butt;stroke-linejoin:miter;stroke-miterlimit:10;stroke-dasharray:none;stroke-dashoffset:0"
         id="path3223"
         inkscape:connector-curvature="0" />
      <path
         stroke-miterlimit="10"
         d="m 47.062,45.812 -1.0625,-0.46875 c -0.25681,-0.13957 -0.56234,-0.21875 -0.875,-0.21875 -1.0005,0 -1.8125,0.812 -1.8125,1.8125 0,1.0005 0.812,1.8125 1.8125,1.8125 0.96923,0 1.7639,-0.76152 1.8125,-1.7188 3.92e-4,-0.008 -2.95e-4,-0.0235 0,-0.0312 l 0.125,-1.1875 z"
         style="color:#000000;fill:#e0e2df;fill-rule:nonzero;stroke:#9b9d99;stroke-width:1;stroke-linecap:butt;stroke-linejoin:miter;stroke-miterlimit:10;stroke-dasharray:none;stroke-dashoffset:0"
         id="path3225"
         inkscape:connector-curvature="0" />
      <path
         stroke-miterlimit="10"
         d="m 36.93,45.545 -0.09939,1.1652 c -0.03733,0.28989 -7.43e-4,0.60339 0.11225,0.89491 0.36157,0.93289 1.4121,1.3966 2.345,1.035 0.93288,-0.36157 1.3966,-1.4121 1.035,-2.345 -0.35027,-0.90373 -1.3475,-1.3695 -2.2576,-1.0689 -0.0073,0.002 -0.02181,0.009 -0.02914,0.0113 l -1.1061,0.30751 z"
         style="color:#000000;fill:#e0e2df;fill-rule:nonzero;stroke:#9b9d99;stroke-width:1;stroke-linecap:butt;stroke-linejoin:miter;stroke-miterlimit:10;stroke-dasharray:none;stroke-dashoffset:0"
         id="path3227"
         inkscape:connector-curvature="0" />
      <path
         stroke-miterlimit="10"
         d="m 33.437,45.812 -0.9375,-0.46875 c -0.25681,-0.13957 -0.56234,-0.21875 -0.875,-0.21875 -1.0005,0 -1.8125,0.812 -1.8125,1.8125 0,1.0005 0.812,1.8125 1.8125,1.8125 0.96923,0 1.7639,-0.76152 1.8125,-1.7188 3.92e-4,-0.008 -2.95e-4,-0.0235 0,-0.0312 l 0,-1.1875 z"
         style="color:#000000;fill:#e0e2df;fill-rule:nonzero;stroke:#9b9d99;stroke-width:1;stroke-linecap:butt;stroke-linejoin:miter;stroke-miterlimit:10;stroke-dasharray:none;stroke-dashoffset:0"
         id="path3229"
         inkscape:connector-curvature="0" />
      <rect
         x="12.257"
         y="12.636"
         stroke-miterlimit="4"
         width="39.349998"
         height="30.646"
         ry="2.5697"
         rx="2.5697"
         style="opacity:0.5738602;fill:none;stroke:url(#linearGradient3313);stroke-width:1;stroke-linecap:round;stroke-linejoin:round;stroke-miterlimit:4;stroke-dasharray:none;stroke-dashoffset:0"
         id="rect3231" />
      <path
         d="m 53.14,24.797 c -0.51711,-1.0196 -9.8251,-1.0196 -10.342,0 0,1.5293 -1.5513,6.1174 -1.5513,10.196 0,4.0783 5.1711,6.6272 6.7224,6.6272 1.5513,0 6.7224,-2.5489 6.7224,-6.6272 0,-4.0783 -1.5513,-8.6663 -1.5513,-10.196 z"
         id="path3233"
         inkscape:connector-curvature="0"
         style="fill:#ffffff;fill-opacity:0.38020833;fill-rule:evenodd" />
      <path
         d="m 53.445,36.071 a 6.1527,1.5235 0 0 1 -12.305,0 6.1527,1.5235 0 1 1 12.305,0 z"
         id="path3235"
         style="opacity:0.07000002;fill:url(#radialGradient3315)"
         inkscape:connector-curvature="0" />
      <path
         stroke-miterlimit="0"
         transform="matrix(1.2818465,0,0,0.9398128,18.486277,40.9813)"
         d="m 27.438,11 a 4.4375,2.1843 0 1 1 -8.875,0 4.4375,2.1843 0 1 1 8.875,0 z"
         style="opacity:0.2;fill:#000000;stroke:#000000;stroke-width:0.61406273;stroke-linecap:round;stroke-linejoin:round;stroke-miterlimit:0;stroke-dasharray:none;filter:url(#filter3436)"
         id="path3237"
         inkscape:connector-curvature="0" />
      <path
         d="m 53.14,24.797 c -0.51711,-1.0196 -9.8251,-1.0196 -10.342,0 0,1.5293 -1.5513,6.1174 -1.5513,10.196 0,4.0783 5.1711,6.6272 6.7224,6.6272 1.5513,0 6.7224,-2.5489 6.7224,-6.6272 0,-4.0783 -1.5513,-8.6663 -1.5513,-10.196 z"
         id="path3239"
         style="fill:url(#radialGradient3317);fill-rule:evenodd"
         inkscape:connector-curvature="0" />
      <path
         stroke-miterlimit="0"
         d="m 53.447,50.5 a 5.4785,1.9784361 0 1 1 -10.957,0 5.4785,1.9784361 0 1 1 10.957,0 z"
         style="fill:url(#linearGradient5607);stroke:#888a85;stroke-width:1.04329979;stroke-linecap:round;stroke-linejoin:round;stroke-miterlimit:0;stroke-dasharray:none"
         id="path3241"
         inkscape:connector-curvature="0" />
      <path
         stroke-miterlimit="0"
         d="m 52.469,50.5 a 4.5,1.2723 0 0 1 -9,0 4.5,1.2723 0 1 1 9,0 z"
         style="fill:none;stroke:url(#linearGradient5609);stroke-width:1;stroke-linecap:round;stroke-linejoin:round;stroke-miterlimit:0;stroke-dasharray:none"
         id="path3243"
         inkscape:connector-curvature="0" />
      <path
         d="m 45.383,40.6 c 1.0342,1.0196 2.0684,2.5489 2.0684,8.1565 0,1.0196 0.13988,1.5294 0.51711,1.5294 0.37723,0 0.51711,-0.50978 0.51711,-1.5294 0,-5.6076 1.0342,-7.137 2.0684,-8.1565"
         id="path3245"
         style="fill:url(#linearGradient5611);fill-rule:evenodd;stroke:#888a85;stroke-width:1;stroke-linecap:round;stroke-linejoin:miter"
         inkscape:connector-curvature="0" />
      <path
         d="m 40.969,33.5 c 0,6 5.4487,8.1197 7,8.1197 1.5513,0 7,-2.1197 7,-8.1197"
         id="path3247"
         style="fill:url(#radialGradient3325);fill-rule:evenodd"
         inkscape:connector-curvature="0" />
      <path
         stroke-miterlimit="0"
         d="m 54.302,33.463 a 6.3335,1.5293483 0 0 1 -12.667,0 6.3335,1.5293483 0 1 1 12.667,0 z"
         style="fill:url(#radialGradient3327);stroke:url(#linearGradient5613);stroke-width:0.67398685;stroke-linecap:round;stroke-linejoin:round;stroke-miterlimit:0;stroke-dasharray:none"
         id="path3249"
         inkscape:connector-curvature="0" />
      <path
         d="m 52.562,26.812 -10.5,6.9063 c -0.47185,2.1071 0.57612,3.8839 1.9688,5.1562 0.69977,0.63931 1.4779,1.1545 2.1875,1.5 0.70965,0.3455 1.3655,0.53125 1.75,0.53125 0.38459,0 1.0458,-0.20765 1.7812,-0.5625 0.73541,-0.35485 1.5613,-0.85244 2.2812,-1.5312 1.4399,-1.3576 2.4993,-3.3228 1.8438,-5.7812 a 0.10694,0.10694 0 0 1 0,-0.0312 c -0.32628,-2.6102 -0.67143,-3.938 -1.3125,-6.1875 z"
         id="path3251"
         style="fill:none;stroke:url(#linearGradient3331);stroke-width:1;stroke-linecap:round;stroke-linejoin:miter"
         inkscape:connector-curvature="0" />
      <path
         d="m 44.199,26.667 3.1027,0 c 0,0 -1.5513,6.1174 -1.5513,8.6663 0,1.5294 1.0342,2.5489 0.51711,3.0587 -0.51711,0.50979 -3.1027,-1.4789 -3.1027,-4.0783 0,-1.0196 0.51711,-4.0783 1.0342,-7.6467 z"
         id="path3253"
         style="fill:url(#linearGradient5615);fill-rule:evenodd"
         inkscape:connector-curvature="0" />
      <path
         stroke-miterlimit="0"
         d="m 53.153,24.727 a 5.1841,1.2399 0 1 1 -7.84e-4,-0.02154"
         style="fill:none;stroke:#919191;stroke-width:0.97392541;stroke-linecap:round;stroke-linejoin:round;stroke-miterlimit:0;stroke-dasharray:none"
         id="path3255"
         inkscape:connector-curvature="0" />
      <path
         stroke-miterlimit="0"
         d="m 52.969,25.965 c -0.33333,0.33333 -2.3078,0.69993 -5.1622,0.69993 -2.8544,0 -4.5044,-0.3666 -4.8378,-0.69993"
         id="path3257"
         inkscape:connector-curvature="0"
         style="fill:none;stroke:#ffffff;stroke-width:0.67398679;stroke-linecap:round;stroke-linejoin:round;stroke-miterlimit:0" />
      <path
         stroke-miterlimit="0"
         d="m 53.969,33 c 0,0.57036 -2.3333,1.3333 -6.0127,1.3666 -3.679,0.033 -5.987,-0.797 -5.987,-1.367"
         id="path3259"
         style="fill:none;stroke:url(#radialGradient3335);stroke-width:0.67398679;stroke-linecap:round;stroke-linejoin:round;stroke-miterlimit:0"
         inkscape:connector-curvature="0" />
      <path
         d="m 46.635,42 c 0,0 0.33333,0.66667 1.3333,0.63923 C 48.9683,42.61183 49.3016,42 49.3016,42"
         id="path3261"
         inkscape:connector-curvature="0"
         style="opacity:0.35;fill:none;stroke:#000000;stroke-width:0.66666669px;stroke-linecap:round;stroke-linejoin:round" />
      <path
         transform="matrix(1.0342194,0,0,1.019566,39.694993,5.68188)"
         d="m 8,43.468 2.5,-1 2.4688,0.125 -4.9687,0.875 z"
         id="path3263"
         style="fill:url(#linearGradient5617);fill-rule:evenodd;stroke:url(#linearGradient5619);stroke-width:0.64922434px;stroke-linecap:round;stroke-linejoin:round;filter:url(#filter3391-0)"
         inkscape:connector-curvature="0" />
      <path
         d="m 53.14,24.797 c -0.6711,-1.7968 -9.6711,-1.7968 -10.342,0 0,1.5293 -1.8289,6.1249 -1.8289,10.203 0,4.0783 5.4487,6.6197 7,6.6197 1.5513,0 7,-2.5414 7,-6.6197 0,-4.0783 -1.8289,-8.6738 -1.8289,-10.203 z"
         id="path3265"
         inkscape:connector-curvature="0"
         style="fill:none;stroke:#919191;stroke-width:1;stroke-linecap:round;stroke-linejoin:miter" />
      <path
         d="m 53.14,24.797 c -0.51711,-1.0196 -9.8251,-1.0196 -10.342,0 0,1.5293 -1.5513,6.1174 -1.5513,10.196 0,4.0783 5.1711,6.6272 6.7224,6.6272 1.5513,0 6.7224,-2.5489 6.7224,-6.6272 0,-4.0783 -1.5513,-8.6663 -1.5513,-10.196 z"
         id="path3267"
         style="fill:url(#radialGradient3341);fill-rule:evenodd"
         inkscape:connector-curvature="0" />
      <path
         d="m 53.445,36.071 a 6.1527,1.5235 0 0 1 -12.305,0 6.1527,1.5235 0 1 1 12.305,0 z"
         id="path3269"
         style="opacity:0.07000002;fill:url(#radialGradient3343)"
         inkscape:connector-curvature="0" />
      <path
         stroke-miterlimit="0"
         transform="matrix(1.2818465,0,0,0.9398128,18.486277,40.9813)"
         d="m 27.438,11 a 4.4375,2.1843 0 1 1 -8.875,0 4.4375,2.1843 0 1 1 8.875,0 z"
         style="opacity:0.2;fill:#000000;stroke:#000000;stroke-width:0.61406273;stroke-linecap:round;stroke-linejoin:round;stroke-miterlimit:0;stroke-dasharray:none;filter:url(#filter3436)"
         id="path3271"
         inkscape:connector-curvature="0" />
      <path
         stroke-miterlimit="0"
         d="m 53.447,50.5 a 5.4785,1.9784361 0 1 1 -10.957,0 5.4785,1.9784361 0 1 1 10.957,0 z"
         style="fill:url(#linearGradient3319);stroke:#888a85;stroke-width:1.04329979;stroke-linecap:round;stroke-linejoin:round;stroke-miterlimit:0;stroke-dasharray:none"
         id="path3273"
         inkscape:connector-curvature="0" />
      <path
         stroke-miterlimit="0"
         d="m 52.469,50.5 a 4.5,1.2723 0 0 1 -9,0 4.5,1.2723 0 1 1 9,0 z"
         style="fill:none;stroke:url(#linearGradient3321);stroke-width:1;stroke-linecap:round;stroke-linejoin:round;stroke-miterlimit:0;stroke-dasharray:none"
         id="path3275"
         inkscape:connector-curvature="0" />
      <path
         d="m 45.383,40.6 c 1.0342,1.0196 2.0684,2.5489 2.0684,8.1565 0,1.0196 0.13988,1.5294 0.51711,1.5294 0.37723,0 0.51711,-0.50978 0.51711,-1.5294 0,-5.6076 1.0342,-7.137 2.0684,-8.1565"
         id="path3277"
         style="fill:url(#linearGradient3323);fill-rule:evenodd;stroke:#888a85;stroke-width:1;stroke-linecap:round;stroke-linejoin:miter"
         inkscape:connector-curvature="0" />
      <path
         d="m 40.969,33.5 c 0,6 5.4487,8.1197 7,8.1197 1.5513,0 7,-2.1197 7,-8.1197"
         id="path3279"
         style="fill:url(#radialGradient3351);fill-rule:evenodd"
         inkscape:connector-curvature="0" />
      <path
         stroke-miterlimit="0"
         d="m 54.302,33.463 a 6.3335,1.5293483 0 0 1 -12.667,0 6.3335,1.5293483 0 1 1 12.667,0 z"
         style="fill:url(#radialGradient3353);stroke:url(#linearGradient3329);stroke-width:0.67398685;stroke-linecap:round;stroke-linejoin:round;stroke-miterlimit:0;stroke-dasharray:none"
         id="path3281"
         inkscape:connector-curvature="0" />
      <path
         d="m 44.199,26.667 3.1027,0 c 0,0 -1.5513,6.1174 -1.5513,8.6663 0,1.5294 1.0342,2.5489 0.51711,3.0587 -0.51711,0.50979 -3.1027,-1.4789 -3.1027,-4.0783 0,-1.0196 0.51711,-4.0783 1.0342,-7.6467 z"
         id="path3283"
         style="fill:url(#linearGradient3333);fill-rule:evenodd"
         inkscape:connector-curvature="0" />
      <path
         stroke-miterlimit="0"
         d="m 53.153,24.727 a 5.1841,1.2399 0 1 1 -7.84e-4,-0.02154"
         style="fill:none;stroke:#919191;stroke-width:0.97392541;stroke-linecap:round;stroke-linejoin:round;stroke-miterlimit:0;stroke-dasharray:none"
         id="path3285"
         inkscape:connector-curvature="0" />
      <path
         stroke-miterlimit="0"
         d="m 52.969,25.965 c -0.33333,0.33333 -2.3078,0.69993 -5.1622,0.69993 -2.8544,0 -4.5044,-0.3666 -4.8378,-0.69993"
         id="path3287"
         inkscape:connector-curvature="0"
         style="fill:none;stroke:#ffffff;stroke-width:0.67398679;stroke-linecap:round;stroke-linejoin:round;stroke-miterlimit:0" />
      <path
         stroke-miterlimit="0"
         d="m 53.969,33 c 0,0.57036 -2.3333,1.3333 -6.0127,1.3666 -3.679,0.033 -5.987,-0.797 -5.987,-1.367"
         id="path3289"
         style="fill:none;stroke:url(#radialGradient3359);stroke-width:0.67398679;stroke-linecap:round;stroke-linejoin:round;stroke-miterlimit:0"
         inkscape:connector-curvature="0" />
      <path
         d="m 46.635,42 c 0,0 0.33333,0.66667 1.3333,0.63923 C 48.9683,42.61183 49.3016,42 49.3016,42"
         id="path3291"
         inkscape:connector-curvature="0"
         style="opacity:0.35;fill:none;stroke:#000000;stroke-width:0.66666669px;stroke-linecap:round;stroke-linejoin:round" />
      <path
         transform="matrix(1.0342194,0,0,1.019566,39.694993,5.68188)"
         d="m 8,43.468 2.5,-1 2.4688,0.125 -4.9687,0.875 z"
         id="path3293"
         style="fill:url(#linearGradient3337);fill-rule:evenodd;stroke:url(#linearGradient3339);stroke-width:0.64922434px;stroke-linecap:round;stroke-linejoin:round;filter:url(#filter3391-0)"
         inkscape:connector-curvature="0" />
      <path
         d="m 53.14,24.797 c -0.6711,-1.7968 -9.6711,-1.7968 -10.342,0 0,1.5293 -1.8289,6.1249 -1.8289,10.203 0,4.0783 5.4487,6.6197 7,6.6197 1.5513,0 7,-2.5414 7,-6.6197 0,-4.0783 -1.8289,-8.6738 -1.8289,-10.203 z"
         id="path3295"
         inkscape:connector-curvature="0"
         style="fill:none;stroke:#919191;stroke-width:1;stroke-linecap:round;stroke-linejoin:miter" />
    </g>
  </g>
</svg>
