<?xml version="1.0" encoding="UTF-8" standalone="no"?>
<!-- Created with Inkscape (http://www.inkscape.org/) -->

<svg
   xmlns:dc="http://purl.org/dc/elements/1.1/"
   xmlns:cc="http://creativecommons.org/ns#"
   xmlns:rdf="http://www.w3.org/1999/02/22-rdf-syntax-ns#"
   xmlns:svg="http://www.w3.org/2000/svg"
   xmlns="http://www.w3.org/2000/svg"
   xmlns:xlink="http://www.w3.org/1999/xlink"
   xmlns:sodipodi="http://sodipodi.sourceforge.net/DTD/sodipodi-0.dtd"
   xmlns:inkscape="http://www.inkscape.org/namespaces/inkscape"
   width="512"
   height="512"
   id="svg4378"
   version="1.1"
   inkscape:version="0.91 r13725"
   viewBox="0 0 512 512"
   sodipodi:docname="winemine.svg">
  <defs
     id="defs4380">
    <radialGradient
       inkscape:collect="always"
       xlink:href="#radialGradient2918"
       id="radialGradient3102"
       gradientUnits="userSpaceOnUse"
       gradientTransform="matrix(1.010638,0,0,0.11191027,-0.51045,40.550586)"
       cx="24.243999"
       cy="45.625999"
       r="23.739" />
    <radialGradient
       id="radialGradient2918"
       gradientUnits="userSpaceOnUse"
       cx="24.243999"
       cy="45.625999"
       r="23.739"
       gradientTransform="matrix(1.010638,0,0,0.11191027,-0.51045,40.550586)">
      <stop
         id="stop4345"
         stop-color="#2e3436"
         offset="0" />
      <stop
         id="stop4347"
         stop-color="#2e3436"
         stop-opacity="0"
         offset="1" />
    </radialGradient>
    <radialGradient
       inkscape:collect="always"
       xlink:href="#radialGradient2915"
       id="radialGradient3104"
       gradientUnits="userSpaceOnUse"
       gradientTransform="matrix(1.535736,-0.01421183,0.01248853,1.349515,5.048995,7.046852)"
       cx="5.2732"
       cy="2.4916"
       r="24" />
    <radialGradient
       id="radialGradient2915"
       gradientUnits="userSpaceOnUse"
       cx="5.2732"
       cy="2.4916"
       r="24"
       gradientTransform="matrix(1.535736,-0.01421183,0.01248853,1.349515,5.048995,7.046852)">
      <stop
         id="stop2808"
         stop-color="#d3d7cf"
         offset="0" />
      <stop
         id="stop2810"
         stop-color="#555753"
         offset="1" />
    </radialGradient>
    <radialGradient
       inkscape:collect="always"
       xlink:href="#radialGradient2912"
       id="radialGradient3106"
       gradientUnits="userSpaceOnUse"
       gradientTransform="matrix(1.5754,-0.01194882,0.01114334,1.469199,-7.468864,-4.513215)"
       cx="15.577"
       cy="14.457"
       r="23" />
    <radialGradient
       id="radialGradient2912"
       gradientUnits="userSpaceOnUse"
       cx="15.577"
       cy="14.457"
       r="23"
       gradientTransform="matrix(1.5754,-0.01194882,0.01114334,1.469199,-7.468864,-4.513215)">
      <stop
         id="stop5506"
         stop-color="#eeeeec"
         offset="0" />
      <stop
         id="stop5508"
         stop-color="#eeeeec"
         stop-opacity="0"
         offset="1" />
    </radialGradient>
    <radialGradient
       inkscape:collect="always"
       xlink:href="#radialGradient3004"
       id="radialGradient3108"
       gradientUnits="userSpaceOnUse"
       gradientTransform="matrix(0.4206982,0,0,0.10417298,21.092895,26.50544)"
       cx="37.375"
       cy="33.188"
       r="14.625" />
    <radialGradient
       id="radialGradient3004"
       gradientUnits="userSpaceOnUse"
       cx="37.375"
       cy="33.188"
       r="14.625"
       gradientTransform="matrix(0.4206982,0,0,0.10417298,21.092895,26.50544)">
      <stop
         id="stop4335"
         stop-color="#000"
         offset="0" />
      <stop
         id="stop4337"
         stop-color="#000"
         stop-opacity="0"
         offset="1" />
    </radialGradient>
    <filter
       style="color-interpolation-filters:sRGB"
       id="filter3436"
       height="1.2801698"
       width="1.1580106"
       y="-0.14008497"
       x="-0.079005308">
      <feGaussianBlur
         id="feGaussianBlur3438"
         stdDeviation="0.3190069" />
    </filter>
    <radialGradient
       inkscape:collect="always"
       xlink:href="#radialGradient3000"
       id="radialGradient3110"
       gradientUnits="userSpaceOnUse"
       gradientTransform="matrix(1.5911065,-0.078428,0.09931994,1.9582576,-4.888382,-9.67444)"
       cx="27.5"
       cy="22.614"
       r="6.5" />
    <radialGradient
       id="radialGradient3000"
       gradientUnits="userSpaceOnUse"
       cx="27.5"
       cy="22.614"
       r="6.5"
       gradientTransform="matrix(1.5911065,-0.078428,0.09931994,1.9582576,-4.888382,-9.67444)">
      <stop
         id="stop3348"
         stop-color="#737373"
         offset="0" />
      <stop
         id="stop3350"
         stop-color="#000"
         stop-opacity="0"
         offset="1" />
    </radialGradient>
    <linearGradient
       inkscape:collect="always"
       xlink:href="#linearGradient2997"
       id="linearGradient3112"
       gradientUnits="userSpaceOnUse"
       gradientTransform="matrix(1.2744752,0,0,1.0288787,8.18038,33.074453)"
       x1="27.681"
       y1="14.243"
       x2="21.440001"
       y2="9.2770004" />
    <linearGradient
       id="linearGradient2997"
       y2="9.2770004"
       gradientUnits="userSpaceOnUse"
       y1="14.243"
       gradientTransform="matrix(1.2744752,0,0,1.0288787,8.18038,33.074453)"
       x2="21.440001"
       x1="27.681">
      <stop
         id="stop3230"
         stop-color="#373737"
         offset="0" />
      <stop
         id="stop3232"
         stop-color="#373737"
         stop-opacity="0"
         offset="1" />
    </linearGradient>
    <linearGradient
       inkscape:collect="always"
       xlink:href="#linearGradient3198"
       id="linearGradient3114"
       gradientUnits="userSpaceOnUse"
       gradientTransform="matrix(1.2818465,0,0,0.9398128,8.010841,34.054178)"
       x1="25.268999"
       y1="12.038"
       x2="17.799"
       y2="5.0353999" />
    <linearGradient
       id="linearGradient3198">
      <stop
         id="stop3200"
         stop-color="#FFF"
         offset="0" />
      <stop
         id="stop3202"
         stop-color="#FFF"
         stop-opacity="0"
         offset="1" />
    </linearGradient>
    <linearGradient
       inkscape:collect="always"
       xlink:href="#linearGradient2991"
       id="linearGradient3116"
       gradientUnits="userSpaceOnUse"
       gradientTransform="matrix(1.0342194,0,0,1.0195661,12.672047,7.9834979)"
       x1="29"
       y1="33"
       x2="19"
       y2="27" />
    <linearGradient
       id="linearGradient2991"
       y2="27"
       gradientUnits="userSpaceOnUse"
       y1="33"
       gradientTransform="matrix(1.0342194,0,0,1.0195661,12.672047,7.9834979)"
       x2="19"
       x1="29">
      <stop
         id="stop3222"
         stop-color="#373737"
         offset="0" />
      <stop
         id="stop3224"
         stop-color="#FFF"
         offset="1" />
    </linearGradient>
    <radialGradient
       inkscape:collect="always"
       xlink:href="#radialGradient2988"
       id="radialGradient3118"
       gradientUnits="userSpaceOnUse"
       gradientTransform="matrix(0.9811466,-0.3224151,0.1189352,0.3517503,10.924121,32.644626)"
       cx="26.625"
       cy="26.577"
       r="12.5" />
    <radialGradient
       id="radialGradient2988"
       gradientUnits="userSpaceOnUse"
       cx="26.625"
       cy="26.577"
       r="12.5"
       gradientTransform="matrix(0.9811466,-0.3224151,0.1189352,0.3517503,10.924121,32.644626)">
      <stop
         id="stop3191"
         stop-color="#e40000"
         offset="0" />
      <stop
         id="stop3193"
         stop-color="#490000"
         offset="1" />
    </radialGradient>
    <radialGradient
       inkscape:collect="always"
       xlink:href="#radialGradient2983"
       id="radialGradient3120"
       gradientUnits="userSpaceOnUse"
       gradientTransform="matrix(1.2818465,0,0,0.46520969,8.01084,22.237945)"
       cx="25.017"
       cy="13.192"
       r="9.7512999" />
    <radialGradient
       id="radialGradient2983"
       gradientUnits="userSpaceOnUse"
       cx="25.017"
       cy="13.192"
       r="9.7512999"
       gradientTransform="matrix(1.2818465,0,0,0.46520969,8.01084,22.237945)">
      <stop
         id="stop3173"
         stop-color="#fd0000"
         offset="0" />
      <stop
         id="stop3175"
         stop-color="#6a0000"
         offset="1" />
    </radialGradient>
    <linearGradient
       inkscape:collect="always"
       xlink:href="#linearGradient2985"
       id="linearGradient3122"
       gradientUnits="userSpaceOnUse"
       gradientTransform="matrix(1.2818465,0,0,0.9398128,8.01084,17.017311)"
       x1="27.216999"
       y1="15.984"
       x2="22.035999"
       y2="7.1352" />
    <linearGradient
       id="linearGradient2985"
       y2="7.1352"
       gradientUnits="userSpaceOnUse"
       y1="15.984"
       gradientTransform="matrix(1.2818465,0,0,0.9398128,8.01084,17.017311)"
       x2="22.035999"
       x1="27.216999">
      <stop
         id="stop4404"
         stop-color="#e80000"
         offset="0" />
      <stop
         id="stop4406"
         stop-color="#490000"
         offset="1" />
    </linearGradient>
    <linearGradient
       inkscape:collect="always"
       xlink:href="#linearGradient3198"
       id="linearGradient3124"
       gradientUnits="userSpaceOnUse"
       gradientTransform="matrix(1.0293043,0,0,1.0285483,12.824807,8.0352666)"
       x1="30.375999"
       y1="25.27"
       x2="22"
       y2="19" />
    <linearGradient
       inkscape:collect="always"
       xlink:href="#linearGradient3198"
       id="linearGradient3126"
       gradientUnits="userSpaceOnUse"
       gradientTransform="matrix(1.0342194,0,0,1.019566,13.556708,7.3044279)"
       x1="17.605"
       y1="18.312"
       x2="23"
       y2="18.312" />
    <radialGradient
       inkscape:collect="always"
       xlink:href="#radialGradient2972"
       id="radialGradient3128"
       gradientUnits="userSpaceOnUse"
       gradientTransform="matrix(1.0342194,0,0,0.1874519,20.933121,25.58513)"
       cx="18"
       cy="14.19"
       r="5.5054998" />
    <radialGradient
       id="radialGradient2972"
       gradientUnits="userSpaceOnUse"
       cx="18"
       cy="14.19"
       r="5.5054998"
       gradientTransform="matrix(1.0342194,0,0,0.1874519,20.933121,25.58513)">
      <stop
         id="stop3454"
         stop-color="#FFF"
         offset="0" />
      <stop
         id="stop3456"
         stop-color="#FFF"
         stop-opacity="0"
         offset="1" />
    </radialGradient>
    <linearGradient
       inkscape:collect="always"
       xlink:href="#linearGradient2964"
       id="linearGradient3130"
       gradientUnits="userSpaceOnUse"
       gradientTransform="translate(-8.0000004,15.967633)"
       x1="16"
       y1="27.5"
       x2="20.5"
       y2="25.5" />
    <linearGradient
       id="linearGradient2964"
       y2="25.5"
       gradientUnits="userSpaceOnUse"
       y1="27.5"
       gradientTransform="translate(-8.0000004,15.967633)"
       x2="20.5"
       x1="16">
      <stop
         id="stop3375"
         stop-color="#000"
         offset="0" />
      <stop
         id="stop3377"
         stop-color="#373737"
         stop-opacity="0"
         offset="1" />
    </linearGradient>
    <linearGradient
       inkscape:collect="always"
       xlink:href="#linearGradient2966"
       id="linearGradient3132"
       gradientUnits="userSpaceOnUse"
       gradientTransform="translate(-8.0000004,15.967633)"
       x1="16"
       y1="27"
       x2="21.5"
       y2="27" />
    <linearGradient
       id="linearGradient2966"
       y2="27"
       gradientUnits="userSpaceOnUse"
       y1="27"
       gradientTransform="translate(-8.0000004,15.967633)"
       x2="21.5"
       x1="16">
      <stop
         id="stop3444"
         stop-color="#000"
         offset="0" />
      <stop
         id="stop3446"
         stop-color="#000"
         stop-opacity="0"
         offset="1" />
    </linearGradient>
    <filter
       style="color-interpolation-filters:sRGB"
       id="filter3391"
       height="1.336"
       width="1.1344"
       y="-0.168"
       x="-0.067199998">
      <feGaussianBlur
         id="feGaussianBlur3393"
         stdDeviation="0.14" />
    </filter>
  </defs>
  <sodipodi:namedview
     id="base"
     pagecolor="#ffffff"
     bordercolor="#666666"
     borderopacity="1.0"
     inkscape:pageopacity="0.0"
     inkscape:pageshadow="2"
     inkscape:zoom="0.6875"
     inkscape:cx="375.88677"
     inkscape:cy="151.13777"
     inkscape:current-layer="layer1"
     showgrid="true"
     inkscape:document-units="px"
     inkscape:grid-bbox="true"
     inkscape:window-width="1410"
     inkscape:window-height="855"
     inkscape:window-x="30"
     inkscape:window-y="0"
     inkscape:window-maximized="1" />
  <metadata
     id="metadata4383">
    <rdf:RDF>
      <cc:Work
         rdf:about="">
        <dc:format>image/svg+xml</dc:format>
        <dc:type
           rdf:resource="http://purl.org/dc/dcmitype/StillImage" />
        <dc:title></dc:title>
      </cc:Work>
    </rdf:RDF>
  </metadata>
  <g
     id="layer1"
     inkscape:label="Layer 1"
     inkscape:groupmode="layer"
     transform="translate(0,448)">
    <g
       transform="matrix(10.444813,0,0,10.444813,4.9079407,-443.2222)"
       id="g3062">
      <path
         d="m 47.982,45.657 c 0.0031,1.4674 -10.739,2.6572 -23.991,2.6572 -13.252,0 -23.994,-1.19 -23.991,-2.657 -0.0031724,-1.468 10.739,-2.658 23.991,-2.658 13.252,0 23.994,1.1898 23.991,2.6572 z"
         id="path3064"
         style="fill:url(#radialGradient3102)"
         inkscape:connector-curvature="0" />
      <path
         stroke-miterlimit="4"
         d="m 21.625,0.5 c -0.5959,0 -1.0938,0.4666 -1.0938,1.0625 l 0,3.9375 c 0,0.092063 0.04094,0.16482 0.0625,0.25 -2.7925,0.51744 -5.3596,1.662 -7.5625,3.2812 -0.04999,-0.16256 -0.12091,-0.30841 -0.25,-0.4375 l -2.75,-2.7812 c -0.4221,-0.4214 -1.1106,-0.4214 -1.532,0 L 5.8117,8.5 c -0.42136,0.42136 -0.42136,1.1099 0,1.5312 l 2.75,2.75 c 0.1302,0.1302 0.30463,0.23151 0.46875,0.28125 -1.791,2.4528 -2.9981,5.3431 -3.4062,8.5 -0.0445,-0.005 -0.079,-0.031 -0.125,-0.031 l -3.9062,0 c -0.59595,0 -1.0938,0.498 -1.0938,1.094 l 0,3.7812 c 0,0.596 0.49785,1.094 1.0938,1.094 l 3.9062,0 c 0.11382,0 0.20969,-0.03003 0.3125,-0.0625 0.55874,2.9296 1.7991,5.609 3.5625,7.875 -0.305,-0.027 -0.6406,0.078 -0.875,0.312 l -2.6875,2.6875 c -0.42136,0.42136 -0.42137,1.1099 0,1.5312 l 2.7812,2.75 c 0.42136,0.42136 1.0786,0.42137 1.5,0 l 2.6875,-2.6875 c 0.26809,-0.26809 0.3543,-0.62495 0.28125,-0.96875 2.1767,1.5908 4.7186,2.699 7.4688,3.2188 -0.05429,0.12877 -0.09375,0.25728 -0.09375,0.40625 l 0,3.8125 c 0,0.5959 0.4666,1.0938 1.0625,1.0938 l 3.9375,0 c 0.5959,0 1.0625,-0.49785 1.0625,-1.0938 l 0,-3.8125 c 0,-0.09206 -0.04094,-0.16482 -0.0625,-0.25 3.1791,-0.42268 6.1036,-1.6453 8.5625,-3.4688 0.03703,0.20982 0.1185,0.39975 0.28125,0.5625 l 2.7812,2.7812 c 0.42136,0.42136 1.1099,0.42136 1.5312,0 l 2.688,-2.687 c 0.42136,-0.42136 0.42137,-1.1099 0,-1.5312 l -2.781,-2.75 c -0.17044,-0.17044 -0.37321,-0.27994 -0.59375,-0.3125 1.6101,-2.1878 2.7575,-4.7288 3.2812,-7.5 0.10281,0.03247 0.19868,0.0625 0.3125,0.0625 l 3.9375,0 c 0.5959,0 1.0625,-0.49785 1.0625,-1.0938 l 0,-3.8125 c 0,-0.595 -0.467,-1.062 -1.062,-1.062 l -3.9375,0 c -0.05691,0 -0.10177,0.02282 -0.15625,0.03125 -0.41224,-3.1407 -1.5931,-6.0263 -3.375,-8.4688 0.18576,-0.04498 0.38566,-0.13567 0.53125,-0.28125 l 2.6875,-2.6875 c 0.42136,-0.42136 0.42136,-1.0786 0,-1.5 l -2.782,-2.7815 c -0.42136,-0.42136 -1.0786,-0.42136 -1.5,0 l -2.687,2.6875 c -0.146,0.1456 -0.237,0.3455 -0.281,0.5312 -2.438,-1.7918 -5.329,-2.9834 -8.469,-3.4062 0.005,-0.0445 0.031,-0.079 0.031,-0.125 l 0,-3.9375 c 0,-0.5959 -0.467,-1.0625 -1.062,-1.0625 l -3.8125,0 z"
         style="fill:url(#radialGradient3104);stroke:#2e3436;stroke-width:1;stroke-linecap:round;stroke-linejoin:miter;stroke-miterlimit:4;stroke-dasharray:none"
         id="path3066"
         inkscape:connector-curvature="0" />
      <path
         stroke-miterlimit="4"
         d="m 22.094,1.5312 c -0.31609,0 -0.5625,0.24641 -0.5625,0.5625 l 0,4.125 c 0,0.15804 0.05312,0.30312 0.15625,0.40625 -3.1813,0.41754 -6.0923,1.7058 -8.5,3.5938 l -3.3537,-3.3535 c -0.22351,-0.22351 -0.58899,-0.22351 -0.8125,0 l -2.0625,2.0625 c -0.22351,0.22351 -0.22351,0.58899 0,0.8125 l 3.3527,3.3535 c -2.1218,2.6525 -3.4939,5.9151 -3.7812,9.5 -0.097066,-0.07649 -0.21002,-0.125 -0.34375,-0.125 l -4.125,0 c -0.31609,0 -0.5625,0.24641 -0.5625,0.5625 l 0,2.9062 c 5e-4,0.316 0.2469,0.562 0.563,0.562 l 4.125,0 c 0.18236,0 0.33319,-0.08639 0.4375,-0.21875 0.43223,3.3371 1.8063,6.368 3.8438,8.8438 0.0053,0.0065 -0.0053,0.02477 0,0.03125 l -3.4375,3.4062 c -0.22351,0.22351 -0.22351,0.58899 0,0.8125 l 2.0312,2.0625 c 0.22351,0.22351 0.58899,0.22351 0.8125,0 l 3.5,-3.5 c 2.3793,1.8158 5.2311,3.0343 8.3438,3.4375 -0.133,0.105 -0.219,0.256 -0.219,0.438 l 0,4.125 c 0,0.31609 0.24641,0.5625 0.5625,0.5625 l 2.9062,0 c 0.31609,0 0.5625,-0.24641 0.5625,-0.5625 l 0,-4.125 c 0,-0.13373 -0.04851,-0.24668 -0.125,-0.34375 3.5937,-0.28804 6.8753,-1.6504 9.5312,-3.7812 l 3.423,3.4542 c 0.22351,0.22351 0.58899,0.22351 0.8125,0 l 2.0625,-2.0625 c 0.22351,-0.22351 0.22351,-0.58899 0,-0.8125 l -3.453,-3.456 c 1.8869,-2.4064 3.1443,-5.3207 3.5625,-8.5 0.10378,0.14002 0.28031,0.21875 0.46875,0.21875 l 4.125,0 c 0.31609,0 0.5625,-0.24641 0.5625,-0.5625 l 0,-2.9062 c 0,-0.31609 -0.24641,-0.5625 -0.5625,-0.5625 l -4.125,0 c -0.13373,0 -0.24668,0.04851 -0.34375,0.125 -0.27958,-3.5674 -1.6519,-6.8201 -3.75,-9.4688 l 3.423,-3.524 c 0.22351,-0.22351 0.22351,-0.58899 0,-0.8125 L 39.08,6.75545 c -0.22351,-0.22351 -0.58899,-0.22351 -0.8125,0 l -3.424,3.524 c -2.6332,-2.0859 -5.8631,-3.4597 -9.4062,-3.75 0.0614,-0.091033 0.125,-0.19397 0.125,-0.3125 l 0,-4.125 c 0,-0.31609 -0.24641,-0.5625 -0.5625,-0.5625 l -2.9062,0 z"
         style="fill:none;stroke:url(#radialGradient3106);stroke-width:1;stroke-linecap:round;stroke-linejoin:miter;stroke-miterlimit:4;stroke-dasharray:none"
         id="path3068"
         inkscape:connector-curvature="0" />
      <path
         d="m 42.969,29.963 a 6.1527,1.5235 0 0 1 -12.305,0 6.1527,1.5235 0 1 1 12.305,0 z"
         id="path3070"
         style="opacity:0.07000002;fill:url(#radialGradient3108)"
         inkscape:connector-curvature="0" />
      <path
         stroke-miterlimit="0"
         transform="matrix(1.2818465,0,0,0.9398128,8.01084,34.873417)"
         d="m 27.438,11 a 4.4375,2.1843 0 1 1 -8.875,0 4.4375,2.1843 0 1 1 8.875,0 z"
         style="opacity:0.2;fill:#000000;stroke:#000000;stroke-width:0.61406273;stroke-linecap:round;stroke-linejoin:round;stroke-miterlimit:0;stroke-dasharray:none;filter:url(#filter3436)"
         id="path3072"
         inkscape:connector-curvature="0" />
      <path
         d="m 42.664,18.689 c -0.51711,-1.0196 -9.8251,-1.0196 -10.342,0 0,1.5293 -1.5513,6.1174 -1.5513,10.196 0,4.0783 5.1711,6.6272 6.7224,6.6272 1.5513,0 6.7224,-2.5489 6.7224,-6.6272 0,-4.0783 -1.5513,-8.6663 -1.5513,-10.196 z"
         id="path3074"
         style="fill:url(#radialGradient3110);fill-rule:evenodd"
         inkscape:connector-curvature="0" />
      <path
         stroke-miterlimit="0"
         d="m 42.972,44.392 a 5.4785,1.9784361 0 1 1 -10.957,0 5.4785,1.9784361 0 1 1 10.957,0 z"
         style="fill:url(#linearGradient3112);stroke:#888a85;stroke-width:1.04329979;stroke-linecap:round;stroke-linejoin:round;stroke-miterlimit:0;stroke-dasharray:none"
         id="path3076"
         inkscape:connector-curvature="0" />
      <path
         stroke-miterlimit="0"
         d="m 41.993,44.392 a 4.5,1.2723 0 1 1 -9,0 4.5,1.2723 0 1 1 9,0 z"
         style="fill:none;stroke:url(#linearGradient3114);stroke-width:1;stroke-linecap:round;stroke-linejoin:round;stroke-miterlimit:0;stroke-dasharray:none"
         id="path3078"
         inkscape:connector-curvature="0" />
      <path
         d="m 34.908,34.492 c 1.0342,1.0196 2.0684,2.5489 2.0684,8.1565 0,1.0196 0.13988,1.5293 0.51711,1.5293 0.37723,0 0.51711,-0.50978 0.51711,-1.5293 0,-5.6076 1.0342,-7.137 2.0684,-8.1565"
         id="path3080"
         style="fill:url(#linearGradient3116);fill-rule:evenodd;stroke:#888a85;stroke-width:1;stroke-linecap:round;stroke-linejoin:miter"
         inkscape:connector-curvature="0" />
      <path
         d="m 30.493,27.392 c 0,6 5.4487,8.1197 7,8.1197 1.5513,0 7,-2.1197 7,-8.1197"
         id="path3082"
         style="fill:url(#radialGradient3118);fill-rule:evenodd"
         inkscape:connector-curvature="0" />
      <path
         stroke-miterlimit="0"
         d="m 43.827,27.355 a 6.3335,1.5293483 0 0 1 -12.667,0 6.3335,1.5293483 0 1 1 12.667,0 z"
         style="fill:url(#radialGradient3120);stroke:url(#linearGradient3122);stroke-width:0.67398685;stroke-linecap:round;stroke-linejoin:round;stroke-miterlimit:0;stroke-dasharray:none"
         id="path3084"
         inkscape:connector-curvature="0" />
      <path
         d="m 42.087,20.705 -10.5,6.9062 c -0.47185,2.1071 0.57612,3.8839 1.9688,5.1562 0.69977,0.63931 1.4779,1.1545 2.1875,1.5 0.70965,0.3455 1.3655,0.53125 1.75,0.53125 0.38459,0 1.0458,-0.20765 1.7812,-0.5625 0.73541,-0.35485 1.5613,-0.85244 2.2812,-1.5312 1.4399,-1.3576 2.4993,-3.3228 1.8438,-5.7812 a 0.10694,0.10694 0 0 1 0,-0.03125 C 43.07322,24.2823 42.72807,22.9545 42.087,20.705 Z"
         id="path3086"
         style="fill:none;stroke:url(#linearGradient3124);stroke-width:1;stroke-linecap:round;stroke-linejoin:miter"
         inkscape:connector-curvature="0" />
      <path
         d="m 33.724,20.559 3.1027,0 c 0,0 -1.5513,6.1174 -1.5513,8.6663 0,1.5293 1.0342,2.5489 0.51711,3.0587 -0.51711,0.50978 -3.1027,-1.4789 -3.1027,-4.0783 0,-1.0196 0.51711,-4.0783 1.0342,-7.6467 z"
         id="path3088"
         style="fill:url(#linearGradient3126);fill-rule:evenodd"
         inkscape:connector-curvature="0" />
      <path
         stroke-miterlimit="0"
         d="m 42.677,18.619 a 5.1841,1.2399 0 1 1 -7.84e-4,-0.02155"
         style="fill:none;stroke:#919191;stroke-width:0.97392541;stroke-linecap:round;stroke-linejoin:round;stroke-miterlimit:0;stroke-dasharray:none"
         id="path3090"
         inkscape:connector-curvature="0" />
      <path
         stroke-miterlimit="0"
         d="m 42.493,19.857 c -0.33333,0.33333 -2.3078,0.69994 -5.1622,0.69994 -2.8544,0 -4.5044,-0.3666 -4.8378,-0.69994"
         id="path3092"
         inkscape:connector-curvature="0"
         style="fill:none;stroke:#ffffff;stroke-width:0.67398679;stroke-linecap:round;stroke-linejoin:round;stroke-miterlimit:0" />
      <path
         stroke-miterlimit="0"
         d="m 43.493,26.892 c 0,0.57036 -2.3333,1.3333 -6.0127,1.3666 C 33.801,28.29187 31.493,27.46236 31.493,26.892"
         id="path3094"
         style="fill:none;stroke:url(#radialGradient3128);stroke-width:0.67398679;stroke-linecap:round;stroke-linejoin:round;stroke-miterlimit:0"
         inkscape:connector-curvature="0" />
      <path
         d="m 36.16,35.892 c 0,0 0.33333,0.66667 1.3333,0.63923 1,-0.02744 1.3333,-0.63923 1.3333,-0.63923"
         id="path3096"
         inkscape:connector-curvature="0"
         style="opacity:0.35;fill:none;stroke:#000000;stroke-width:0.66666669px;stroke-linecap:round;stroke-linejoin:round" />
      <path
         transform="matrix(1.0342194,0,0,1.019566,29.219556,-0.426)"
         d="m 8,43.468 2.5,-1 2.4688,0.125 -4.9687,0.875 z"
         id="path3098"
         style="fill:url(#linearGradient3130);fill-rule:evenodd;stroke:url(#linearGradient3132);stroke-width:0.64922434px;stroke-linecap:round;stroke-linejoin:round;filter:url(#filter3391)"
         inkscape:connector-curvature="0" />
      <path
         d="m 42.664,18.689 c -0.6711,-1.7968 -9.6711,-1.7968 -10.342,0 0,1.5293 -1.8289,6.1249 -1.8289,10.203 0,4.0783 5.4487,6.6197 7,6.6197 1.5513,0 7,-2.5414 7,-6.6197 0,-4.0783 -1.8289,-8.6738 -1.8289,-10.203 z"
         id="path3100"
         inkscape:connector-curvature="0"
         style="fill:none;stroke:#919191;stroke-width:1;stroke-linecap:round;stroke-linejoin:miter" />
    </g>
  </g>
</svg>
